<svg width="1269" height="1686" viewBox="0 0 1269 1686" fill="none" xmlns="http://www.w3.org/2000/svg">
<rect width="375" height="812" fill="white"/>
<g filter="url(#filter0_d)">
<path d="M112.638 468.954L171.349 454.868L154.192 512.756L112.638 468.954Z" fill="#132742"/>
<rect x="82" y="301.77" width="199.697" height="183.154" rx="43.491" transform="rotate(-3.66624 82 301.77)" fill="#132742"/>
<path d="M177.161 391.944C179.381 394.912 182.213 397.368 185.466 399.145C188.719 400.922 192.316 401.979 196.013 402.244C199.71 402.509 203.421 401.975 206.893 400.68C210.366 399.384 213.52 397.357 216.14 394.736L231.649 379.227C236.358 374.352 238.963 367.822 238.904 361.045C238.845 354.268 236.127 347.784 231.334 342.992C226.542 338.199 220.059 335.481 213.281 335.422C206.504 335.363 199.975 337.969 195.099 342.677L186.208 351.517" stroke="white" stroke-width="9.88433" stroke-linecap="round" stroke-linejoin="round"/>
<path d="M197.839 381.605C195.619 378.637 192.787 376.181 189.534 374.404C186.281 372.627 182.684 371.57 178.987 371.305C175.29 371.04 171.58 371.574 168.107 372.869C164.634 374.165 161.481 376.192 158.86 378.813L143.351 394.322C138.643 399.197 136.037 405.727 136.096 412.504C136.155 419.281 138.873 425.764 143.666 430.557C148.458 435.349 154.942 438.068 161.719 438.127C168.496 438.186 175.026 435.58 179.901 430.872L188.741 422.032" stroke="white" stroke-width="9.88433" stroke-linecap="round" stroke-linejoin="round"/>
</g>
<g clip-path="url(#clip0)">
<rect x="894" y="874" width="375" height="812" rx="8" fill="#132742"/>
<rect x="1188.37" y="1033" width="55.6296" height="54" rx="7" fill="#FF5555"/>
<path d="M1206 1054H1208H1224" stroke="white" stroke-width="2" stroke-linecap="round" stroke-linejoin="round"/>
<path d="M1211 1054V1052C1211 1051.47 1211.21 1050.96 1211.59 1050.59C1211.96 1050.21 1212.47 1050 1213 1050H1217C1217.53 1050 1218.04 1050.21 1218.41 1050.59C1218.79 1050.96 1219 1051.47 1219 1052V1054M1222 1054V1068C1222 1068.53 1221.79 1069.04 1221.41 1069.41C1221.04 1069.79 1220.53 1070 1220 1070H1210C1209.47 1070 1208.96 1069.79 1208.59 1069.41C1208.21 1069.04 1208 1068.53 1208 1068V1054H1222Z" stroke="white" stroke-width="2" stroke-linecap="round" stroke-linejoin="round"/>
<path d="M884.37 1061C884.8 1061.57 885.348 1062.05 885.977 1062.39C886.606 1062.74 887.302 1062.94 888.017 1062.99C888.732 1063.04 889.45 1062.94 890.122 1062.69C890.793 1062.44 891.403 1062.05 891.91 1061.54L894.91 1058.54C895.821 1057.6 896.325 1056.33 896.314 1055.02C896.302 1053.71 895.776 1052.46 894.849 1051.53C893.922 1050.6 892.668 1050.08 891.357 1050.07C890.046 1050.06 888.783 1050.56 887.84 1051.47L886.12 1053.18" stroke="white" stroke-width="2" stroke-linecap="round" stroke-linejoin="round"/>
<rect x="845" y="1033" width="325" height="54" rx="7" fill="white" fill-opacity="0.15"/>
<text fill="white" xml:space="preserve" style="white-space: pre" font-family="Roboto" font-size="20" letter-spacing="0em"><tspan x="898" y="1068.34">https://sujeitoprogramador.c</tspan></text>
<path d="M940 1132C940.429 1132.57 940.977 1133.05 941.607 1133.39C942.236 1133.74 942.932 1133.94 943.647 1133.99C944.362 1134.04 945.08 1133.94 945.751 1133.69C946.423 1133.44 947.033 1133.05 947.54 1132.54L950.54 1129.54C951.451 1128.6 951.955 1127.33 951.943 1126.02C951.932 1124.71 951.406 1123.46 950.479 1122.53C949.552 1121.6 948.298 1121.08 946.987 1121.07C945.676 1121.06 944.413 1121.56 943.47 1122.47L941.75 1124.18" stroke="white" stroke-width="2" stroke-linecap="round" stroke-linejoin="round"/>
<path d="M944 1130C943.571 1129.43 943.023 1128.95 942.393 1128.61C941.764 1128.26 941.068 1128.06 940.353 1128.01C939.638 1127.96 938.92 1128.06 938.249 1128.31C937.577 1128.56 936.967 1128.95 936.46 1129.46L933.46 1132.46C932.549 1133.4 932.045 1134.67 932.057 1135.98C932.068 1137.29 932.594 1138.54 933.521 1139.47C934.448 1140.4 935.702 1140.92 937.013 1140.93C938.324 1140.94 939.587 1140.44 940.53 1139.53L942.24 1137.82" stroke="white" stroke-width="2" stroke-linecap="round" stroke-linejoin="round"/>
<rect x="919" y="1104" width="325" height="54" rx="7" fill="white" fill-opacity="0.15"/>
<text fill="white" xml:space="preserve" style="white-space: pre" font-family="Roboto" font-size="20" letter-spacing="0em"><tspan x="972" y="1139.34">https://globo.com</tspan></text>
<path d="M940 1203C940.429 1203.57 940.977 1204.05 941.607 1204.39C942.236 1204.74 942.932 1204.94 943.647 1204.99C944.362 1205.04 945.08 1204.94 945.751 1204.69C946.423 1204.44 947.033 1204.05 947.54 1203.54L950.54 1200.54C951.451 1199.6 951.955 1198.33 951.943 1197.02C951.932 1195.71 951.406 1194.46 950.479 1193.53C949.552 1192.6 948.298 1192.08 946.987 1192.07C945.676 1192.06 944.413 1192.56 943.47 1193.47L941.75 1195.18" stroke="white" stroke-width="2" stroke-linecap="round" stroke-linejoin="round"/>
<path d="M944 1201C943.571 1200.43 943.023 1199.95 942.393 1199.61C941.764 1199.26 941.068 1199.06 940.353 1199.01C939.638 1198.96 938.92 1199.06 938.249 1199.31C937.577 1199.56 936.967 1199.95 936.46 1200.46L933.46 1203.46C932.549 1204.4 932.045 1205.67 932.057 1206.98C932.068 1208.29 932.594 1209.54 933.521 1210.47C934.448 1211.4 935.702 1211.92 937.013 1211.93C938.324 1211.94 939.587 1211.44 940.53 1210.53L942.24 1208.82" stroke="white" stroke-width="2" stroke-linecap="round" stroke-linejoin="round"/>
<rect x="919" y="1175" width="325" height="54" rx="7" fill="white" fill-opacity="0.15"/>
<text fill="white" xml:space="preserve" style="white-space: pre" font-family="Roboto" font-size="20" letter-spacing="0em"><tspan x="972" y="1210.34">https://youtube.com</tspan></text>
<path d="M922.75 928H945.25" stroke="white" stroke-width="2.5" stroke-linecap="round" stroke-linejoin="round"/>
<path d="M922.75 920.5H945.25" stroke="white" stroke-width="2.5" stroke-linecap="round" stroke-linejoin="round"/>
<path d="M922.75 935.5H945.25" stroke="white" stroke-width="2.5" stroke-linecap="round" stroke-linejoin="round"/>
<text fill="white" xml:space="preserve" style="white-space: pre" font-family="Roboto" font-size="33" font-weight="bold" letter-spacing="0em"><tspan x="919" y="1007.78">Meus links</tspan></text>
</g>
<g clip-path="url(#clip1)">
<rect x="894" y="874" width="375" height="812" rx="8" fill="#132742"/>
<rect x="1188.37" y="1033" width="55.6296" height="54" rx="7" fill="#FF5555"/>
<path d="M1206 1054H1208H1224" stroke="white" stroke-width="2" stroke-linecap="round" stroke-linejoin="round"/>
<path d="M1211 1054V1052C1211 1051.47 1211.21 1050.96 1211.59 1050.59C1211.96 1050.21 1212.47 1050 1213 1050H1217C1217.53 1050 1218.04 1050.21 1218.41 1050.59C1218.79 1050.96 1219 1051.47 1219 1052V1054M1222 1054V1068C1222 1068.53 1221.79 1069.04 1221.41 1069.41C1221.04 1069.79 1220.53 1070 1220 1070H1210C1209.47 1070 1208.96 1069.79 1208.59 1069.41C1208.21 1069.04 1208 1068.53 1208 1068V1054H1222Z" stroke="white" stroke-width="2" stroke-linecap="round" stroke-linejoin="round"/>
<path d="M884.37 1061C884.8 1061.57 885.348 1062.05 885.977 1062.39C886.606 1062.74 887.302 1062.94 888.017 1062.99C888.732 1063.04 889.45 1062.94 890.122 1062.69C890.793 1062.44 891.403 1062.05 891.91 1061.54L894.91 1058.54C895.821 1057.6 896.325 1056.33 896.314 1055.02C896.302 1053.71 895.776 1052.46 894.849 1051.53C893.922 1050.6 892.668 1050.08 891.357 1050.07C890.046 1050.06 888.783 1050.56 887.84 1051.47L886.12 1053.18" stroke="white" stroke-width="2" stroke-linecap="round" stroke-linejoin="round"/>
<rect x="845" y="1033" width="325" height="54" rx="7" fill="white" fill-opacity="0.15"/>
<text fill="white" xml:space="preserve" style="white-space: pre" font-family="Roboto" font-size="20" letter-spacing="0em"><tspan x="898" y="1068.34">https://sujeitoprogramador.c</tspan></text>
<path d="M940 1132C940.429 1132.57 940.977 1133.05 941.607 1133.39C942.236 1133.74 942.932 1133.94 943.647 1133.99C944.362 1134.04 945.08 1133.94 945.751 1133.69C946.423 1133.44 947.033 1133.05 947.54 1132.54L950.54 1129.54C951.451 1128.6 951.955 1127.33 951.943 1126.02C951.932 1124.71 951.406 1123.46 950.479 1122.53C949.552 1121.6 948.298 1121.08 946.987 1121.07C945.676 1121.06 944.413 1121.56 943.47 1122.47L941.75 1124.18" stroke="white" stroke-width="2" stroke-linecap="round" stroke-linejoin="round"/>
<path d="M944 1130C943.571 1129.43 943.023 1128.95 942.393 1128.61C941.764 1128.26 941.068 1128.06 940.353 1128.01C939.638 1127.96 938.92 1128.06 938.249 1128.31C937.577 1128.56 936.967 1128.95 936.46 1129.46L933.46 1132.46C932.549 1133.4 932.045 1134.67 932.057 1135.98C932.068 1137.29 932.594 1138.54 933.521 1139.47C934.448 1140.4 935.702 1140.92 937.013 1140.93C938.324 1140.94 939.587 1140.44 940.53 1139.53L942.24 1137.82" stroke="white" stroke-width="2" stroke-linecap="round" stroke-linejoin="round"/>
<rect x="919" y="1104" width="325" height="54" rx="7" fill="white" fill-opacity="0.15"/>
<text fill="white" xml:space="preserve" style="white-space: pre" font-family="Roboto" font-size="20" letter-spacing="0em"><tspan x="972" y="1139.34">https://globo.com</tspan></text>
<path d="M940 1203C940.429 1203.57 940.977 1204.05 941.607 1204.39C942.236 1204.74 942.932 1204.94 943.647 1204.99C944.362 1205.04 945.08 1204.94 945.751 1204.69C946.423 1204.44 947.033 1204.05 947.54 1203.54L950.54 1200.54C951.451 1199.6 951.955 1198.33 951.943 1197.02C951.932 1195.71 951.406 1194.46 950.479 1193.53C949.552 1192.6 948.298 1192.08 946.987 1192.07C945.676 1192.06 944.413 1192.56 943.47 1193.47L941.75 1195.18" stroke="white" stroke-width="2" stroke-linecap="round" stroke-linejoin="round"/>
<path d="M944 1201C943.571 1200.43 943.023 1199.95 942.393 1199.61C941.764 1199.26 941.068 1199.06 940.353 1199.01C939.638 1198.96 938.92 1199.06 938.249 1199.31C937.577 1199.56 936.967 1199.95 936.46 1200.46L933.46 1203.46C932.549 1204.4 932.045 1205.67 932.057 1206.98C932.068 1208.29 932.594 1209.54 933.521 1210.47C934.448 1211.4 935.702 1211.92 937.013 1211.93C938.324 1211.94 939.587 1211.44 940.53 1210.53L942.24 1208.82" stroke="white" stroke-width="2" stroke-linecap="round" stroke-linejoin="round"/>
<rect x="919" y="1175" width="325" height="54" rx="7" fill="white" fill-opacity="0.15"/>
<text fill="white" xml:space="preserve" style="white-space: pre" font-family="Roboto" font-size="20" letter-spacing="0em"><tspan x="972" y="1210.34">https://youtube.com</tspan></text>
<path d="M922.75 928H945.25" stroke="white" stroke-width="2.5" stroke-linecap="round" stroke-linejoin="round"/>
<path d="M922.75 920.5H945.25" stroke="white" stroke-width="2.5" stroke-linecap="round" stroke-linejoin="round"/>
<path d="M922.75 935.5H945.25" stroke="white" stroke-width="2.5" stroke-linecap="round" stroke-linejoin="round"/>
<text fill="white" xml:space="preserve" style="white-space: pre" font-family="Roboto" font-size="33" font-weight="bold" letter-spacing="0em"><tspan x="919" y="1007.78">Meus links</tspan></text>
</g>
<g clip-path="url(#clip2)">
<rect x="894" y="874" width="375" height="812" rx="8" fill="#132742"/>
<rect x="1188.37" y="1033" width="55.6296" height="54" rx="7" fill="#FF5555"/>
<path d="M1206 1054H1208H1224" stroke="white" stroke-width="2" stroke-linecap="round" stroke-linejoin="round"/>
<path d="M1211 1054V1052C1211 1051.47 1211.21 1050.96 1211.59 1050.59C1211.96 1050.21 1212.47 1050 1213 1050H1217C1217.53 1050 1218.04 1050.21 1218.41 1050.59C1218.79 1050.96 1219 1051.47 1219 1052V1054M1222 1054V1068C1222 1068.53 1221.79 1069.04 1221.41 1069.41C1221.04 1069.79 1220.53 1070 1220 1070H1210C1209.47 1070 1208.96 1069.79 1208.59 1069.41C1208.21 1069.04 1208 1068.53 1208 1068V1054H1222Z" stroke="white" stroke-width="2" stroke-linecap="round" stroke-linejoin="round"/>
<path d="M884.37 1061C884.8 1061.57 885.348 1062.05 885.977 1062.39C886.606 1062.74 887.302 1062.94 888.017 1062.99C888.732 1063.04 889.45 1062.94 890.122 1062.69C890.793 1062.44 891.403 1062.05 891.91 1061.54L894.91 1058.54C895.821 1057.6 896.325 1056.33 896.314 1055.02C896.302 1053.71 895.776 1052.46 894.849 1051.53C893.922 1050.6 892.668 1050.08 891.357 1050.07C890.046 1050.06 888.783 1050.56 887.84 1051.47L886.12 1053.18" stroke="white" stroke-width="2" stroke-linecap="round" stroke-linejoin="round"/>
<rect x="845" y="1033" width="325" height="54" rx="7" fill="white" fill-opacity="0.15"/>
<text fill="white" xml:space="preserve" style="white-space: pre" font-family="Roboto" font-size="20" letter-spacing="0em"><tspan x="898" y="1068.34">https://sujeitoprogramador.c</tspan></text>
<path d="M940 1132C940.429 1132.57 940.977 1133.05 941.607 1133.39C942.236 1133.74 942.932 1133.94 943.647 1133.99C944.362 1134.04 945.08 1133.94 945.751 1133.69C946.423 1133.44 947.033 1133.05 947.54 1132.54L950.54 1129.54C951.451 1128.6 951.955 1127.33 951.943 1126.02C951.932 1124.71 951.406 1123.46 950.479 1122.53C949.552 1121.6 948.298 1121.08 946.987 1121.07C945.676 1121.06 944.413 1121.56 943.47 1122.47L941.75 1124.18" stroke="white" stroke-width="2" stroke-linecap="round" stroke-linejoin="round"/>
<path d="M944 1130C943.571 1129.43 943.023 1128.95 942.393 1128.61C941.764 1128.26 941.068 1128.06 940.353 1128.01C939.638 1127.96 938.92 1128.06 938.249 1128.31C937.577 1128.56 936.967 1128.95 936.46 1129.46L933.46 1132.46C932.549 1133.4 932.045 1134.67 932.057 1135.98C932.068 1137.29 932.594 1138.54 933.521 1139.47C934.448 1140.4 935.702 1140.92 937.013 1140.93C938.324 1140.94 939.587 1140.44 940.53 1139.53L942.24 1137.82" stroke="white" stroke-width="2" stroke-linecap="round" stroke-linejoin="round"/>
<rect x="919" y="1104" width="325" height="54" rx="7" fill="white" fill-opacity="0.15"/>
<text fill="white" xml:space="preserve" style="white-space: pre" font-family="Roboto" font-size="20" letter-spacing="0em"><tspan x="972" y="1139.34">https://globo.com</tspan></text>
<path d="M940 1203C940.429 1203.57 940.977 1204.05 941.607 1204.39C942.236 1204.74 942.932 1204.94 943.647 1204.99C944.362 1205.04 945.08 1204.94 945.751 1204.69C946.423 1204.44 947.033 1204.05 947.54 1203.54L950.54 1200.54C951.451 1199.6 951.955 1198.33 951.943 1197.02C951.932 1195.71 951.406 1194.46 950.479 1193.53C949.552 1192.6 948.298 1192.08 946.987 1192.07C945.676 1192.06 944.413 1192.56 943.47 1193.47L941.75 1195.18" stroke="white" stroke-width="2" stroke-linecap="round" stroke-linejoin="round"/>
<path d="M944 1201C943.571 1200.43 943.023 1199.95 942.393 1199.61C941.764 1199.26 941.068 1199.06 940.353 1199.01C939.638 1198.96 938.92 1199.06 938.249 1199.31C937.577 1199.56 936.967 1199.95 936.46 1200.46L933.46 1203.46C932.549 1204.4 932.045 1205.67 932.057 1206.98C932.068 1208.29 932.594 1209.54 933.521 1210.47C934.448 1211.4 935.702 1211.92 937.013 1211.93C938.324 1211.94 939.587 1211.44 940.53 1210.53L942.24 1208.82" stroke="white" stroke-width="2" stroke-linecap="round" stroke-linejoin="round"/>
<rect x="919" y="1175" width="325" height="54" rx="7" fill="white" fill-opacity="0.15"/>
<text fill="white" xml:space="preserve" style="white-space: pre" font-family="Roboto" font-size="20" letter-spacing="0em"><tspan x="972" y="1210.34">https://youtube.com</tspan></text>
<path d="M922.75 928H945.25" stroke="white" stroke-width="2.5" stroke-linecap="round" stroke-linejoin="round"/>
<path d="M922.75 920.5H945.25" stroke="white" stroke-width="2.5" stroke-linecap="round" stroke-linejoin="round"/>
<path d="M922.75 935.5H945.25" stroke="white" stroke-width="2.5" stroke-linecap="round" stroke-linejoin="round"/>
<text fill="white" xml:space="preserve" style="white-space: pre" font-family="Roboto" font-size="33" font-weight="bold" letter-spacing="0em"><tspan x="919" y="1007.78">Meus links</tspan></text>
</g>
<rect y="874" width="375" height="812" rx="8" fill="#132742"/>
<path d="M46 1061C46.4295 1061.57 46.9774 1062.05 47.6066 1062.39C48.2357 1062.74 48.9315 1062.94 49.6467 1062.99C50.3618 1063.04 51.0796 1062.94 51.7513 1062.69C52.4231 1062.44 53.0331 1062.05 53.54 1061.54L56.54 1058.54C57.4508 1057.6 57.9548 1056.33 57.9434 1055.02C57.932 1053.71 57.4061 1052.46 56.4791 1051.53C55.5521 1050.6 54.298 1050.08 52.987 1050.07C51.676 1050.06 50.413 1050.56 49.47 1051.47L47.75 1053.18" stroke="white" stroke-width="2" stroke-linecap="round" stroke-linejoin="round"/>
<path d="M50 1059C49.5706 1058.43 49.0227 1057.95 48.3935 1057.61C47.7643 1057.26 47.0685 1057.06 46.3534 1057.01C45.6382 1056.96 44.9204 1057.06 44.2487 1057.31C43.5769 1057.56 42.9669 1057.95 42.46 1058.46L39.46 1061.46C38.5492 1062.4 38.0453 1063.67 38.0566 1064.98C38.068 1066.29 38.5939 1067.54 39.5209 1068.47C40.448 1069.4 41.702 1069.92 43.013 1069.93C44.324 1069.94 45.587 1069.44 46.53 1068.53L48.24 1066.82" stroke="white" stroke-width="2" stroke-linecap="round" stroke-linejoin="round"/>
<rect x="25" y="1033" width="325" height="54" rx="7" fill="white" fill-opacity="0.15"/>
<text fill="white" xml:space="preserve" style="white-space: pre" font-family="Roboto" font-size="20" letter-spacing="0em"><tspan x="78" y="1068.34">https://sujeitoprogramador.c</tspan></text>
<path d="M46 1132C46.4295 1132.57 46.9774 1133.05 47.6066 1133.39C48.2357 1133.74 48.9315 1133.94 49.6467 1133.99C50.3618 1134.04 51.0796 1133.94 51.7513 1133.69C52.4231 1133.44 53.0331 1133.05 53.54 1132.54L56.54 1129.54C57.4508 1128.6 57.9548 1127.33 57.9434 1126.02C57.932 1124.71 57.4061 1123.46 56.4791 1122.53C55.5521 1121.6 54.298 1121.08 52.987 1121.07C51.676 1121.06 50.413 1121.56 49.47 1122.47L47.75 1124.18" stroke="white" stroke-width="2" stroke-linecap="round" stroke-linejoin="round"/>
<path d="M50 1130C49.5706 1129.43 49.0227 1128.95 48.3935 1128.61C47.7643 1128.26 47.0685 1128.06 46.3534 1128.01C45.6382 1127.96 44.9204 1128.06 44.2487 1128.31C43.5769 1128.56 42.9669 1128.95 42.46 1129.46L39.46 1132.46C38.5492 1133.4 38.0453 1134.67 38.0566 1135.98C38.068 1137.29 38.5939 1138.54 39.5209 1139.47C40.448 1140.4 41.702 1140.92 43.013 1140.93C44.324 1140.94 45.587 1140.44 46.53 1139.53L48.24 1137.82" stroke="white" stroke-width="2" stroke-linecap="round" stroke-linejoin="round"/>
<rect x="25" y="1104" width="325" height="54" rx="7" fill="white" fill-opacity="0.15"/>
<text fill="white" xml:space="preserve" style="white-space: pre" font-family="Roboto" font-size="20" letter-spacing="0em"><tspan x="78" y="1139.34">https://globo.com</tspan></text>
<path d="M46 1203C46.4295 1203.57 46.9774 1204.05 47.6066 1204.39C48.2357 1204.74 48.9315 1204.94 49.6467 1204.99C50.3618 1205.04 51.0796 1204.94 51.7513 1204.69C52.4231 1204.44 53.0331 1204.05 53.54 1203.54L56.54 1200.54C57.4508 1199.6 57.9548 1198.33 57.9434 1197.02C57.932 1195.71 57.4061 1194.46 56.4791 1193.53C55.5521 1192.6 54.298 1192.08 52.987 1192.07C51.676 1192.06 50.413 1192.56 49.47 1193.47L47.75 1195.18" stroke="white" stroke-width="2" stroke-linecap="round" stroke-linejoin="round"/>
<path d="M50 1201C49.5706 1200.43 49.0227 1199.95 48.3935 1199.61C47.7643 1199.26 47.0685 1199.06 46.3534 1199.01C45.6382 1198.96 44.9204 1199.06 44.2487 1199.31C43.5769 1199.56 42.9669 1199.95 42.46 1200.46L39.46 1203.46C38.5492 1204.4 38.0453 1205.67 38.0566 1206.98C38.068 1208.29 38.5939 1209.54 39.5209 1210.47C40.448 1211.4 41.702 1211.92 43.013 1211.93C44.324 1211.94 45.587 1211.44 46.53 1210.53L48.24 1208.82" stroke="white" stroke-width="2" stroke-linecap="round" stroke-linejoin="round"/>
<rect x="25" y="1175" width="325" height="54" rx="7" fill="white" fill-opacity="0.15"/>
<text fill="white" xml:space="preserve" style="white-space: pre" font-family="Roboto" font-size="20" letter-spacing="0em"><tspan x="78" y="1210.34">https://youtube.com</tspan></text>
<path d="M28.75 928H51.25" stroke="white" stroke-width="2.5" stroke-linecap="round" stroke-linejoin="round"/>
<path d="M28.75 920.5H51.25" stroke="white" stroke-width="2.5" stroke-linecap="round" stroke-linejoin="round"/>
<path d="M28.75 935.5H51.25" stroke="white" stroke-width="2.5" stroke-linecap="round" stroke-linejoin="round"/>
<text fill="white" xml:space="preserve" style="white-space: pre" font-family="Roboto" font-size="33" font-weight="bold" letter-spacing="0em"><tspan x="25" y="1007.78">Meus links</tspan></text>
<rect y="874" width="375" height="812" rx="8" fill="#132742"/>
<path d="M46 1061C46.4295 1061.57 46.9774 1062.05 47.6066 1062.39C48.2357 1062.74 48.9315 1062.94 49.6467 1062.99C50.3618 1063.04 51.0796 1062.94 51.7513 1062.69C52.4231 1062.44 53.0331 1062.05 53.54 1061.54L56.54 1058.54C57.4508 1057.6 57.9548 1056.33 57.9434 1055.02C57.932 1053.71 57.4061 1052.46 56.4791 1051.53C55.5521 1050.6 54.298 1050.08 52.987 1050.07C51.676 1050.06 50.413 1050.56 49.47 1051.47L47.75 1053.18" stroke="white" stroke-width="2" stroke-linecap="round" stroke-linejoin="round"/>
<path d="M50 1059C49.5706 1058.43 49.0227 1057.95 48.3935 1057.61C47.7643 1057.26 47.0685 1057.06 46.3534 1057.01C45.6382 1056.96 44.9204 1057.06 44.2487 1057.31C43.5769 1057.56 42.9669 1057.95 42.46 1058.46L39.46 1061.46C38.5492 1062.4 38.0453 1063.67 38.0566 1064.98C38.068 1066.29 38.5939 1067.54 39.5209 1068.47C40.448 1069.4 41.702 1069.92 43.013 1069.93C44.324 1069.94 45.587 1069.44 46.53 1068.53L48.24 1066.82" stroke="white" stroke-width="2" stroke-linecap="round" stroke-linejoin="round"/>
<rect x="25" y="1033" width="325" height="54" rx="7" fill="white" fill-opacity="0.15"/>
<text fill="white" xml:space="preserve" style="white-space: pre" font-family="Roboto" font-size="20" letter-spacing="0em"><tspan x="78" y="1068.34">https://sujeitoprogramador.c</tspan></text>
<path d="M46 1132C46.4295 1132.57 46.9774 1133.05 47.6066 1133.39C48.2357 1133.74 48.9315 1133.94 49.6467 1133.99C50.3618 1134.04 51.0796 1133.94 51.7513 1133.69C52.4231 1133.44 53.0331 1133.05 53.54 1132.54L56.54 1129.54C57.4508 1128.6 57.9548 1127.33 57.9434 1126.02C57.932 1124.71 57.4061 1123.46 56.4791 1122.53C55.5521 1121.6 54.298 1121.08 52.987 1121.07C51.676 1121.06 50.413 1121.56 49.47 1122.47L47.75 1124.18" stroke="white" stroke-width="2" stroke-linecap="round" stroke-linejoin="round"/>
<path d="M50 1130C49.5706 1129.43 49.0227 1128.95 48.3935 1128.61C47.7643 1128.26 47.0685 1128.06 46.3534 1128.01C45.6382 1127.96 44.9204 1128.06 44.2487 1128.31C43.5769 1128.56 42.9669 1128.95 42.46 1129.46L39.46 1132.46C38.5492 1133.4 38.0453 1134.67 38.0566 1135.98C38.068 1137.29 38.5939 1138.54 39.5209 1139.47C40.448 1140.4 41.702 1140.92 43.013 1140.93C44.324 1140.94 45.587 1140.44 46.53 1139.53L48.24 1137.82" stroke="white" stroke-width="2" stroke-linecap="round" stroke-linejoin="round"/>
<rect x="25" y="1104" width="325" height="54" rx="7" fill="white" fill-opacity="0.15"/>
<text fill="white" xml:space="preserve" style="white-space: pre" font-family="Roboto" font-size="20" letter-spacing="0em"><tspan x="78" y="1139.34">https://globo.com</tspan></text>
<path d="M46 1203C46.4295 1203.57 46.9774 1204.05 47.6066 1204.39C48.2357 1204.74 48.9315 1204.94 49.6467 1204.99C50.3618 1205.04 51.0796 1204.94 51.7513 1204.69C52.4231 1204.44 53.0331 1204.05 53.54 1203.54L56.54 1200.54C57.4508 1199.6 57.9548 1198.33 57.9434 1197.02C57.932 1195.71 57.4061 1194.46 56.4791 1193.53C55.5521 1192.6 54.298 1192.08 52.987 1192.07C51.676 1192.06 50.413 1192.56 49.47 1193.47L47.75 1195.18" stroke="white" stroke-width="2" stroke-linecap="round" stroke-linejoin="round"/>
<path d="M50 1201C49.5706 1200.43 49.0227 1199.95 48.3935 1199.61C47.7643 1199.26 47.0685 1199.06 46.3534 1199.01C45.6382 1198.96 44.9204 1199.06 44.2487 1199.31C43.5769 1199.56 42.9669 1199.95 42.46 1200.46L39.46 1203.46C38.5492 1204.4 38.0453 1205.67 38.0566 1206.98C38.068 1208.29 38.5939 1209.54 39.5209 1210.47C40.448 1211.4 41.702 1211.92 43.013 1211.93C44.324 1211.94 45.587 1211.44 46.53 1210.53L48.24 1208.82" stroke="white" stroke-width="2" stroke-linecap="round" stroke-linejoin="round"/>
<rect x="25" y="1175" width="325" height="54" rx="7" fill="white" fill-opacity="0.15"/>
<text fill="white" xml:space="preserve" style="white-space: pre" font-family="Roboto" font-size="20" letter-spacing="0em"><tspan x="78" y="1210.34">https://youtube.com</tspan></text>
<path d="M28.75 928H51.25" stroke="white" stroke-width="2.5" stroke-linecap="round" stroke-linejoin="round"/>
<path d="M28.75 920.5H51.25" stroke="white" stroke-width="2.5" stroke-linecap="round" stroke-linejoin="round"/>
<path d="M28.75 935.5H51.25" stroke="white" stroke-width="2.5" stroke-linecap="round" stroke-linejoin="round"/>
<text fill="white" xml:space="preserve" style="white-space: pre" font-family="Roboto" font-size="33" font-weight="bold" letter-spacing="0em"><tspan x="25" y="1007.78">Meus links</tspan></text>
<rect y="874" width="375" height="812" rx="8" fill="#132742"/>
<path d="M46 1061C46.4295 1061.57 46.9774 1062.05 47.6066 1062.39C48.2357 1062.74 48.9315 1062.94 49.6467 1062.99C50.3618 1063.04 51.0796 1062.94 51.7513 1062.69C52.4231 1062.44 53.0331 1062.05 53.54 1061.54L56.54 1058.54C57.4508 1057.6 57.9548 1056.33 57.9434 1055.02C57.932 1053.71 57.4061 1052.46 56.4791 1051.53C55.5521 1050.6 54.298 1050.08 52.987 1050.07C51.676 1050.06 50.413 1050.56 49.47 1051.47L47.75 1053.18" stroke="white" stroke-width="2" stroke-linecap="round" stroke-linejoin="round"/>
<path d="M50 1059C49.5706 1058.43 49.0227 1057.95 48.3935 1057.61C47.7643 1057.26 47.0685 1057.06 46.3534 1057.01C45.6382 1056.96 44.9204 1057.06 44.2487 1057.31C43.5769 1057.56 42.9669 1057.95 42.46 1058.46L39.46 1061.46C38.5492 1062.4 38.0453 1063.67 38.0566 1064.98C38.068 1066.29 38.5939 1067.54 39.5209 1068.47C40.448 1069.4 41.702 1069.92 43.013 1069.93C44.324 1069.94 45.587 1069.44 46.53 1068.53L48.24 1066.82" stroke="white" stroke-width="2" stroke-linecap="round" stroke-linejoin="round"/>
<rect x="25" y="1033" width="325" height="54" rx="7" fill="white" fill-opacity="0.15"/>
<text fill="white" xml:space="preserve" style="white-space: pre" font-family="Roboto" font-size="20" letter-spacing="0em"><tspan x="78" y="1068.34">https://sujeitoprogramador.c</tspan></text>
<path d="M46 1132C46.4295 1132.57 46.9774 1133.05 47.6066 1133.39C48.2357 1133.74 48.9315 1133.94 49.6467 1133.99C50.3618 1134.04 51.0796 1133.94 51.7513 1133.69C52.4231 1133.44 53.0331 1133.05 53.54 1132.54L56.54 1129.54C57.4508 1128.6 57.9548 1127.33 57.9434 1126.02C57.932 1124.71 57.4061 1123.46 56.4791 1122.53C55.5521 1121.6 54.298 1121.08 52.987 1121.07C51.676 1121.06 50.413 1121.56 49.47 1122.47L47.75 1124.18" stroke="white" stroke-width="2" stroke-linecap="round" stroke-linejoin="round"/>
<path d="M50 1130C49.5706 1129.43 49.0227 1128.95 48.3935 1128.61C47.7643 1128.26 47.0685 1128.06 46.3534 1128.01C45.6382 1127.96 44.9204 1128.06 44.2487 1128.31C43.5769 1128.56 42.9669 1128.95 42.46 1129.46L39.46 1132.46C38.5492 1133.4 38.0453 1134.67 38.0566 1135.98C38.068 1137.29 38.5939 1138.54 39.5209 1139.47C40.448 1140.4 41.702 1140.92 43.013 1140.93C44.324 1140.94 45.587 1140.44 46.53 1139.53L48.24 1137.82" stroke="white" stroke-width="2" stroke-linecap="round" stroke-linejoin="round"/>
<rect x="25" y="1104" width="325" height="54" rx="7" fill="white" fill-opacity="0.15"/>
<text fill="white" xml:space="preserve" style="white-space: pre" font-family="Roboto" font-size="20" letter-spacing="0em"><tspan x="78" y="1139.34">https://globo.com</tspan></text>
<path d="M46 1203C46.4295 1203.57 46.9774 1204.05 47.6066 1204.39C48.2357 1204.74 48.9315 1204.94 49.6467 1204.99C50.3618 1205.04 51.0796 1204.94 51.7513 1204.69C52.4231 1204.44 53.0331 1204.05 53.54 1203.54L56.54 1200.54C57.4508 1199.6 57.9548 1198.33 57.9434 1197.02C57.932 1195.71 57.4061 1194.46 56.4791 1193.53C55.5521 1192.6 54.298 1192.08 52.987 1192.07C51.676 1192.06 50.413 1192.56 49.47 1193.47L47.75 1195.18" stroke="white" stroke-width="2" stroke-linecap="round" stroke-linejoin="round"/>
<path d="M50 1201C49.5706 1200.43 49.0227 1199.95 48.3935 1199.61C47.7643 1199.26 47.0685 1199.06 46.3534 1199.01C45.6382 1198.96 44.9204 1199.06 44.2487 1199.31C43.5769 1199.56 42.9669 1199.95 42.46 1200.46L39.46 1203.46C38.5492 1204.4 38.0453 1205.67 38.0566 1206.98C38.068 1208.29 38.5939 1209.54 39.5209 1210.47C40.448 1211.4 41.702 1211.92 43.013 1211.93C44.324 1211.94 45.587 1211.44 46.53 1210.53L48.24 1208.82" stroke="white" stroke-width="2" stroke-linecap="round" stroke-linejoin="round"/>
<rect x="25" y="1175" width="325" height="54" rx="7" fill="white" fill-opacity="0.15"/>
<text fill="white" xml:space="preserve" style="white-space: pre" font-family="Roboto" font-size="20" letter-spacing="0em"><tspan x="78" y="1210.34">https://youtube.com</tspan></text>
<path d="M28.75 928H51.25" stroke="white" stroke-width="2.5" stroke-linecap="round" stroke-linejoin="round"/>
<path d="M28.75 920.5H51.25" stroke="white" stroke-width="2.5" stroke-linecap="round" stroke-linejoin="round"/>
<path d="M28.75 935.5H51.25" stroke="white" stroke-width="2.5" stroke-linecap="round" stroke-linejoin="round"/>
<text fill="white" xml:space="preserve" style="white-space: pre" font-family="Roboto" font-size="33" font-weight="bold" letter-spacing="0em"><tspan x="25" y="1007.78">Meus links</tspan></text>
<rect x="447" y="874" width="375" height="812" rx="8" fill="#132742"/>
<path d="M493 1061C493.429 1061.57 493.977 1062.05 494.607 1062.39C495.236 1062.74 495.932 1062.94 496.647 1062.99C497.362 1063.04 498.08 1062.94 498.751 1062.69C499.423 1062.44 500.033 1062.05 500.54 1061.54L503.54 1058.54C504.451 1057.6 504.955 1056.33 504.943 1055.02C504.932 1053.71 504.406 1052.46 503.479 1051.53C502.552 1050.6 501.298 1050.08 499.987 1050.07C498.676 1050.06 497.413 1050.56 496.47 1051.47L494.75 1053.18" stroke="white" stroke-width="2" stroke-linecap="round" stroke-linejoin="round"/>
<path d="M497 1059C496.571 1058.43 496.023 1057.95 495.393 1057.61C494.764 1057.26 494.068 1057.06 493.353 1057.01C492.638 1056.96 491.92 1057.06 491.249 1057.31C490.577 1057.56 489.967 1057.95 489.46 1058.46L486.46 1061.46C485.549 1062.4 485.045 1063.67 485.057 1064.98C485.068 1066.29 485.594 1067.54 486.521 1068.47C487.448 1069.4 488.702 1069.92 490.013 1069.93C491.324 1069.94 492.587 1069.44 493.53 1068.53L495.24 1066.82" stroke="white" stroke-width="2" stroke-linecap="round" stroke-linejoin="round"/>
<rect x="472" y="1033" width="325" height="54" rx="7" fill="white" fill-opacity="0.15"/>
<text fill="white" xml:space="preserve" style="white-space: pre" font-family="Roboto" font-size="20" letter-spacing="0em"><tspan x="525" y="1068.34">https://sujeitoprogramador.c</tspan></text>
<path d="M493 1132C493.429 1132.57 493.977 1133.05 494.607 1133.39C495.236 1133.74 495.932 1133.94 496.647 1133.99C497.362 1134.04 498.08 1133.94 498.751 1133.69C499.423 1133.44 500.033 1133.05 500.54 1132.54L503.54 1129.54C504.451 1128.6 504.955 1127.33 504.943 1126.02C504.932 1124.71 504.406 1123.46 503.479 1122.53C502.552 1121.6 501.298 1121.08 499.987 1121.07C498.676 1121.06 497.413 1121.56 496.47 1122.47L494.75 1124.18" stroke="white" stroke-width="2" stroke-linecap="round" stroke-linejoin="round"/>
<path d="M497 1130C496.571 1129.43 496.023 1128.95 495.393 1128.61C494.764 1128.26 494.068 1128.06 493.353 1128.01C492.638 1127.96 491.92 1128.06 491.249 1128.31C490.577 1128.56 489.967 1128.95 489.46 1129.46L486.46 1132.46C485.549 1133.4 485.045 1134.67 485.057 1135.98C485.068 1137.29 485.594 1138.54 486.521 1139.47C487.448 1140.4 488.702 1140.92 490.013 1140.93C491.324 1140.94 492.587 1140.44 493.53 1139.53L495.24 1137.82" stroke="white" stroke-width="2" stroke-linecap="round" stroke-linejoin="round"/>
<rect x="472" y="1104" width="325" height="54" rx="7" fill="white" fill-opacity="0.15"/>
<text fill="white" xml:space="preserve" style="white-space: pre" font-family="Roboto" font-size="20" letter-spacing="0em"><tspan x="525" y="1139.34">https://globo.com</tspan></text>
<path d="M493 1203C493.429 1203.57 493.977 1204.05 494.607 1204.39C495.236 1204.74 495.932 1204.94 496.647 1204.99C497.362 1205.04 498.08 1204.94 498.751 1204.69C499.423 1204.44 500.033 1204.05 500.54 1203.54L503.54 1200.54C504.451 1199.6 504.955 1198.33 504.943 1197.02C504.932 1195.71 504.406 1194.46 503.479 1193.53C502.552 1192.6 501.298 1192.08 499.987 1192.07C498.676 1192.06 497.413 1192.56 496.47 1193.47L494.75 1195.18" stroke="white" stroke-width="2" stroke-linecap="round" stroke-linejoin="round"/>
<path d="M497 1201C496.571 1200.43 496.023 1199.95 495.393 1199.61C494.764 1199.26 494.068 1199.06 493.353 1199.01C492.638 1198.96 491.92 1199.06 491.249 1199.31C490.577 1199.56 489.967 1199.95 489.46 1200.46L486.46 1203.46C485.549 1204.4 485.045 1205.67 485.057 1206.98C485.068 1208.29 485.594 1209.54 486.521 1210.47C487.448 1211.4 488.702 1211.92 490.013 1211.93C491.324 1211.94 492.587 1211.44 493.53 1210.53L495.24 1208.82" stroke="white" stroke-width="2" stroke-linecap="round" stroke-linejoin="round"/>
<rect x="472" y="1175" width="325" height="54" rx="7" fill="white" fill-opacity="0.15"/>
<text fill="white" xml:space="preserve" style="white-space: pre" font-family="Roboto" font-size="20" letter-spacing="0em"><tspan x="525" y="1210.34">https://youtube.com</tspan></text>
<path d="M475.75 928H498.25" stroke="white" stroke-width="2.5" stroke-linecap="round" stroke-linejoin="round"/>
<path d="M475.75 920.5H498.25" stroke="white" stroke-width="2.5" stroke-linecap="round" stroke-linejoin="round"/>
<path d="M475.75 935.5H498.25" stroke="white" stroke-width="2.5" stroke-linecap="round" stroke-linejoin="round"/>
<text fill="white" xml:space="preserve" style="white-space: pre" font-family="Roboto" font-size="33" font-weight="bold" letter-spacing="0em"><tspan x="472" y="1007.78">Meus links</tspan></text>
<rect x="447" y="1280" width="375" height="406" rx="8" fill="white"/>
<text fill="#1CCBAE" xml:space="preserve" style="white-space: pre" font-family="Roboto" font-size="30" font-weight="bold" letter-spacing="0em"><tspan x="472" y="1452.75">Link encurtado:</tspan></text>
<text fill="#A7A7A7" xml:space="preserve" style="white-space: pre" font-family="Roboto" font-size="20" letter-spacing="0em"><tspan x="472" y="1489.34">https://sujeitoprogramador.com/</tspan></text>
<rect x="472" y="1523" width="325" height="49" rx="7" fill="#172742"/>
<text fill="white" xml:space="preserve" style="white-space: pre" font-family="Roboto" font-size="18" letter-spacing="0em"><tspan x="487" y="1553.65">https://bit.ly/3mJxeUq</tspan></text>
<path d="M776 1544H767C765.895 1544 765 1544.9 765 1546V1555C765 1556.1 765.895 1557 767 1557H776C777.105 1557 778 1556.1 778 1555V1546C778 1544.9 777.105 1544 776 1544Z" stroke="white" stroke-width="2" stroke-linecap="round" stroke-linejoin="round"/>
<path d="M761 1550H760C759.47 1550 758.961 1549.79 758.586 1549.41C758.211 1549.04 758 1548.53 758 1548V1539C758 1538.47 758.211 1537.96 758.586 1537.59C758.961 1537.21 759.47 1537 760 1537H769C769.53 1537 770.039 1537.21 770.414 1537.59C770.789 1537.96 771 1538.47 771 1539V1540" stroke="white" stroke-width="2" stroke-linecap="round" stroke-linejoin="round"/>
<path d="M496.75 1326.25L480.25 1342.75" stroke="#212743" stroke-width="2" stroke-linecap="round" stroke-linejoin="round"/>
<path d="M480.25 1326.25L496.75 1342.75" stroke="#212743" stroke-width="2" stroke-linecap="round" stroke-linejoin="round"/>
<path d="M772 1333V1343C772 1343.66 772.263 1344.3 772.732 1344.77C773.201 1345.24 773.837 1345.5 774.5 1345.5H789.5C790.163 1345.5 790.799 1345.24 791.268 1344.77C791.737 1344.3 792 1343.66 792 1343V1333" stroke="black" stroke-width="2" stroke-linecap="round" stroke-linejoin="round"/>
<path d="M787 1325.5L782 1320.5L777 1325.5" stroke="black" stroke-width="2" stroke-linecap="round" stroke-linejoin="round"/>
<path d="M782 1320.5V1336.75" stroke="black" stroke-width="2" stroke-linecap="round" stroke-linejoin="round"/>
<rect x="447" y="874" width="375" height="812" rx="8" fill="#132742"/>
<path d="M493 1061C493.429 1061.57 493.977 1062.05 494.607 1062.39C495.236 1062.74 495.932 1062.94 496.647 1062.99C497.362 1063.04 498.08 1062.94 498.751 1062.69C499.423 1062.44 500.033 1062.05 500.54 1061.54L503.54 1058.54C504.451 1057.6 504.955 1056.33 504.943 1055.02C504.932 1053.71 504.406 1052.46 503.479 1051.53C502.552 1050.6 501.298 1050.08 499.987 1050.07C498.676 1050.06 497.413 1050.56 496.47 1051.47L494.75 1053.18" stroke="white" stroke-width="2" stroke-linecap="round" stroke-linejoin="round"/>
<path d="M497 1059C496.571 1058.43 496.023 1057.95 495.393 1057.61C494.764 1057.26 494.068 1057.06 493.353 1057.01C492.638 1056.96 491.92 1057.06 491.249 1057.31C490.577 1057.56 489.967 1057.95 489.46 1058.46L486.46 1061.46C485.549 1062.4 485.045 1063.67 485.057 1064.98C485.068 1066.29 485.594 1067.54 486.521 1068.47C487.448 1069.4 488.702 1069.92 490.013 1069.93C491.324 1069.94 492.587 1069.44 493.53 1068.53L495.24 1066.82" stroke="white" stroke-width="2" stroke-linecap="round" stroke-linejoin="round"/>
<rect x="472" y="1033" width="325" height="54" rx="7" fill="white" fill-opacity="0.15"/>
<text fill="white" xml:space="preserve" style="white-space: pre" font-family="Roboto" font-size="20" letter-spacing="0em"><tspan x="525" y="1068.34">https://sujeitoprogramador.c</tspan></text>
<path d="M493 1132C493.429 1132.57 493.977 1133.05 494.607 1133.39C495.236 1133.74 495.932 1133.94 496.647 1133.99C497.362 1134.04 498.08 1133.94 498.751 1133.69C499.423 1133.44 500.033 1133.05 500.54 1132.54L503.54 1129.54C504.451 1128.6 504.955 1127.33 504.943 1126.02C504.932 1124.71 504.406 1123.46 503.479 1122.53C502.552 1121.6 501.298 1121.08 499.987 1121.07C498.676 1121.06 497.413 1121.56 496.47 1122.47L494.75 1124.18" stroke="white" stroke-width="2" stroke-linecap="round" stroke-linejoin="round"/>
<path d="M497 1130C496.571 1129.43 496.023 1128.95 495.393 1128.61C494.764 1128.26 494.068 1128.06 493.353 1128.01C492.638 1127.96 491.92 1128.06 491.249 1128.31C490.577 1128.56 489.967 1128.95 489.46 1129.46L486.46 1132.46C485.549 1133.4 485.045 1134.67 485.057 1135.98C485.068 1137.29 485.594 1138.54 486.521 1139.47C487.448 1140.4 488.702 1140.92 490.013 1140.93C491.324 1140.94 492.587 1140.44 493.53 1139.53L495.24 1137.82" stroke="white" stroke-width="2" stroke-linecap="round" stroke-linejoin="round"/>
<rect x="472" y="1104" width="325" height="54" rx="7" fill="white" fill-opacity="0.15"/>
<text fill="white" xml:space="preserve" style="white-space: pre" font-family="Roboto" font-size="20" letter-spacing="0em"><tspan x="525" y="1139.34">https://globo.com</tspan></text>
<path d="M493 1203C493.429 1203.57 493.977 1204.05 494.607 1204.39C495.236 1204.74 495.932 1204.94 496.647 1204.99C497.362 1205.04 498.08 1204.94 498.751 1204.69C499.423 1204.44 500.033 1204.05 500.54 1203.54L503.54 1200.54C504.451 1199.6 504.955 1198.33 504.943 1197.02C504.932 1195.71 504.406 1194.46 503.479 1193.53C502.552 1192.6 501.298 1192.08 499.987 1192.07C498.676 1192.06 497.413 1192.56 496.47 1193.47L494.75 1195.18" stroke="white" stroke-width="2" stroke-linecap="round" stroke-linejoin="round"/>
<path d="M497 1201C496.571 1200.43 496.023 1199.95 495.393 1199.61C494.764 1199.26 494.068 1199.06 493.353 1199.01C492.638 1198.96 491.92 1199.06 491.249 1199.31C490.577 1199.56 489.967 1199.95 489.46 1200.46L486.46 1203.46C485.549 1204.4 485.045 1205.67 485.057 1206.98C485.068 1208.29 485.594 1209.54 486.521 1210.47C487.448 1211.4 488.702 1211.92 490.013 1211.93C491.324 1211.94 492.587 1211.44 493.53 1210.53L495.24 1208.82" stroke="white" stroke-width="2" stroke-linecap="round" stroke-linejoin="round"/>
<rect x="472" y="1175" width="325" height="54" rx="7" fill="white" fill-opacity="0.15"/>
<text fill="white" xml:space="preserve" style="white-space: pre" font-family="Roboto" font-size="20" letter-spacing="0em"><tspan x="525" y="1210.34">https://youtube.com</tspan></text>
<path d="M475.75 928H498.25" stroke="white" stroke-width="2.5" stroke-linecap="round" stroke-linejoin="round"/>
<path d="M475.75 920.5H498.25" stroke="white" stroke-width="2.5" stroke-linecap="round" stroke-linejoin="round"/>
<path d="M475.75 935.5H498.25" stroke="white" stroke-width="2.5" stroke-linecap="round" stroke-linejoin="round"/>
<text fill="white" xml:space="preserve" style="white-space: pre" font-family="Roboto" font-size="33" font-weight="bold" letter-spacing="0em"><tspan x="472" y="1007.78">Meus links</tspan></text>
<rect x="447" y="1280" width="375" height="406" rx="8" fill="white"/>
<text fill="#1CCBAE" xml:space="preserve" style="white-space: pre" font-family="Roboto" font-size="30" font-weight="bold" letter-spacing="0em"><tspan x="472" y="1452.75">Link encurtado:</tspan></text>
<text fill="#A7A7A7" xml:space="preserve" style="white-space: pre" font-family="Roboto" font-size="20" letter-spacing="0em"><tspan x="472" y="1489.34">https://sujeitoprogramador.com/</tspan></text>
<rect x="472" y="1523" width="325" height="49" rx="7" fill="#172742"/>
<text fill="white" xml:space="preserve" style="white-space: pre" font-family="Roboto" font-size="18" letter-spacing="0em"><tspan x="487" y="1553.65">https://bit.ly/3mJxeUq</tspan></text>
<path d="M776 1544H767C765.895 1544 765 1544.9 765 1546V1555C765 1556.1 765.895 1557 767 1557H776C777.105 1557 778 1556.1 778 1555V1546C778 1544.9 777.105 1544 776 1544Z" stroke="white" stroke-width="2" stroke-linecap="round" stroke-linejoin="round"/>
<path d="M761 1550H760C759.47 1550 758.961 1549.79 758.586 1549.41C758.211 1549.04 758 1548.53 758 1548V1539C758 1538.47 758.211 1537.96 758.586 1537.59C758.961 1537.21 759.47 1537 760 1537H769C769.53 1537 770.039 1537.21 770.414 1537.59C770.789 1537.96 771 1538.47 771 1539V1540" stroke="white" stroke-width="2" stroke-linecap="round" stroke-linejoin="round"/>
<path d="M496.75 1326.25L480.25 1342.75" stroke="#212743" stroke-width="2" stroke-linecap="round" stroke-linejoin="round"/>
<path d="M480.25 1326.25L496.75 1342.75" stroke="#212743" stroke-width="2" stroke-linecap="round" stroke-linejoin="round"/>
<path d="M772 1333V1343C772 1343.66 772.263 1344.3 772.732 1344.77C773.201 1345.24 773.837 1345.5 774.5 1345.5H789.5C790.163 1345.5 790.799 1345.24 791.268 1344.77C791.737 1344.3 792 1343.66 792 1343V1333" stroke="black" stroke-width="2" stroke-linecap="round" stroke-linejoin="round"/>
<path d="M787 1325.5L782 1320.5L777 1325.5" stroke="black" stroke-width="2" stroke-linecap="round" stroke-linejoin="round"/>
<path d="M782 1320.5V1336.75" stroke="black" stroke-width="2" stroke-linecap="round" stroke-linejoin="round"/>
<rect x="447" y="874" width="375" height="812" rx="8" fill="#132742"/>
<path d="M493 1061C493.429 1061.57 493.977 1062.05 494.607 1062.39C495.236 1062.74 495.932 1062.94 496.647 1062.99C497.362 1063.04 498.08 1062.94 498.751 1062.69C499.423 1062.44 500.033 1062.05 500.54 1061.54L503.54 1058.54C504.451 1057.6 504.955 1056.33 504.943 1055.02C504.932 1053.71 504.406 1052.46 503.479 1051.53C502.552 1050.6 501.298 1050.08 499.987 1050.07C498.676 1050.06 497.413 1050.56 496.47 1051.47L494.75 1053.18" stroke="white" stroke-width="2" stroke-linecap="round" stroke-linejoin="round"/>
<path d="M497 1059C496.571 1058.43 496.023 1057.95 495.393 1057.61C494.764 1057.26 494.068 1057.06 493.353 1057.01C492.638 1056.96 491.92 1057.06 491.249 1057.31C490.577 1057.56 489.967 1057.95 489.46 1058.46L486.46 1061.46C485.549 1062.4 485.045 1063.67 485.057 1064.98C485.068 1066.29 485.594 1067.54 486.521 1068.47C487.448 1069.4 488.702 1069.92 490.013 1069.93C491.324 1069.94 492.587 1069.44 493.53 1068.53L495.24 1066.82" stroke="white" stroke-width="2" stroke-linecap="round" stroke-linejoin="round"/>
<rect x="472" y="1033" width="325" height="54" rx="7" fill="white" fill-opacity="0.15"/>
<text fill="white" xml:space="preserve" style="white-space: pre" font-family="Roboto" font-size="20" letter-spacing="0em"><tspan x="525" y="1068.34">https://sujeitoprogramador.c</tspan></text>
<path d="M493 1132C493.429 1132.57 493.977 1133.05 494.607 1133.39C495.236 1133.74 495.932 1133.94 496.647 1133.99C497.362 1134.04 498.08 1133.94 498.751 1133.69C499.423 1133.44 500.033 1133.05 500.54 1132.54L503.54 1129.54C504.451 1128.6 504.955 1127.33 504.943 1126.02C504.932 1124.71 504.406 1123.46 503.479 1122.53C502.552 1121.6 501.298 1121.08 499.987 1121.07C498.676 1121.06 497.413 1121.56 496.47 1122.47L494.75 1124.18" stroke="white" stroke-width="2" stroke-linecap="round" stroke-linejoin="round"/>
<path d="M497 1130C496.571 1129.43 496.023 1128.95 495.393 1128.61C494.764 1128.26 494.068 1128.06 493.353 1128.01C492.638 1127.96 491.92 1128.06 491.249 1128.31C490.577 1128.56 489.967 1128.95 489.46 1129.46L486.46 1132.46C485.549 1133.4 485.045 1134.67 485.057 1135.98C485.068 1137.29 485.594 1138.54 486.521 1139.47C487.448 1140.4 488.702 1140.92 490.013 1140.93C491.324 1140.94 492.587 1140.44 493.53 1139.53L495.24 1137.82" stroke="white" stroke-width="2" stroke-linecap="round" stroke-linejoin="round"/>
<rect x="472" y="1104" width="325" height="54" rx="7" fill="white" fill-opacity="0.15"/>
<text fill="white" xml:space="preserve" style="white-space: pre" font-family="Roboto" font-size="20" letter-spacing="0em"><tspan x="525" y="1139.34">https://globo.com</tspan></text>
<path d="M493 1203C493.429 1203.57 493.977 1204.05 494.607 1204.39C495.236 1204.74 495.932 1204.94 496.647 1204.99C497.362 1205.04 498.08 1204.94 498.751 1204.69C499.423 1204.44 500.033 1204.05 500.54 1203.54L503.54 1200.54C504.451 1199.6 504.955 1198.33 504.943 1197.02C504.932 1195.71 504.406 1194.46 503.479 1193.53C502.552 1192.6 501.298 1192.08 499.987 1192.07C498.676 1192.06 497.413 1192.56 496.47 1193.47L494.75 1195.18" stroke="white" stroke-width="2" stroke-linecap="round" stroke-linejoin="round"/>
<path d="M497 1201C496.571 1200.43 496.023 1199.95 495.393 1199.61C494.764 1199.26 494.068 1199.06 493.353 1199.01C492.638 1198.96 491.92 1199.06 491.249 1199.31C490.577 1199.56 489.967 1199.95 489.46 1200.46L486.46 1203.46C485.549 1204.4 485.045 1205.67 485.057 1206.98C485.068 1208.29 485.594 1209.54 486.521 1210.47C487.448 1211.4 488.702 1211.92 490.013 1211.93C491.324 1211.94 492.587 1211.44 493.53 1210.53L495.24 1208.82" stroke="white" stroke-width="2" stroke-linecap="round" stroke-linejoin="round"/>
<rect x="472" y="1175" width="325" height="54" rx="7" fill="white" fill-opacity="0.15"/>
<text fill="white" xml:space="preserve" style="white-space: pre" font-family="Roboto" font-size="20" letter-spacing="0em"><tspan x="525" y="1210.34">https://youtube.com</tspan></text>
<path d="M475.75 928H498.25" stroke="white" stroke-width="2.5" stroke-linecap="round" stroke-linejoin="round"/>
<path d="M475.75 920.5H498.25" stroke="white" stroke-width="2.5" stroke-linecap="round" stroke-linejoin="round"/>
<path d="M475.75 935.5H498.25" stroke="white" stroke-width="2.5" stroke-linecap="round" stroke-linejoin="round"/>
<text fill="white" xml:space="preserve" style="white-space: pre" font-family="Roboto" font-size="33" font-weight="bold" letter-spacing="0em"><tspan x="472" y="1007.78">Meus links</tspan></text>
<rect x="447" y="1280" width="375" height="406" rx="8" fill="white"/>
<text fill="#1CCBAE" xml:space="preserve" style="white-space: pre" font-family="Roboto" font-size="30" font-weight="bold" letter-spacing="0em"><tspan x="472" y="1452.75">Link encurtado:</tspan></text>
<text fill="#A7A7A7" xml:space="preserve" style="white-space: pre" font-family="Roboto" font-size="20" letter-spacing="0em"><tspan x="472" y="1489.34">https://sujeitoprogramador.com/</tspan></text>
<rect x="472" y="1523" width="325" height="49" rx="7" fill="#172742"/>
<text fill="white" xml:space="preserve" style="white-space: pre" font-family="Roboto" font-size="18" letter-spacing="0em"><tspan x="487" y="1553.65">https://bit.ly/3mJxeUq</tspan></text>
<path d="M776 1544H767C765.895 1544 765 1544.9 765 1546V1555C765 1556.1 765.895 1557 767 1557H776C777.105 1557 778 1556.1 778 1555V1546C778 1544.9 777.105 1544 776 1544Z" stroke="white" stroke-width="2" stroke-linecap="round" stroke-linejoin="round"/>
<path d="M761 1550H760C759.47 1550 758.961 1549.79 758.586 1549.41C758.211 1549.04 758 1548.53 758 1548V1539C758 1538.47 758.211 1537.96 758.586 1537.59C758.961 1537.21 759.47 1537 760 1537H769C769.53 1537 770.039 1537.21 770.414 1537.59C770.789 1537.96 771 1538.47 771 1539V1540" stroke="white" stroke-width="2" stroke-linecap="round" stroke-linejoin="round"/>
<path d="M496.75 1326.25L480.25 1342.75" stroke="#212743" stroke-width="2" stroke-linecap="round" stroke-linejoin="round"/>
<path d="M480.25 1326.25L496.75 1342.75" stroke="#212743" stroke-width="2" stroke-linecap="round" stroke-linejoin="round"/>
<path d="M772 1333V1343C772 1343.66 772.263 1344.3 772.732 1344.77C773.201 1345.24 773.837 1345.5 774.5 1345.5H789.5C790.163 1345.5 790.799 1345.24 791.268 1344.77C791.737 1344.3 792 1343.66 792 1343V1333" stroke="black" stroke-width="2" stroke-linecap="round" stroke-linejoin="round"/>
<path d="M787 1325.5L782 1320.5L777 1325.5" stroke="black" stroke-width="2" stroke-linecap="round" stroke-linejoin="round"/>
<path d="M782 1320.5V1336.75" stroke="black" stroke-width="2" stroke-linecap="round" stroke-linejoin="round"/>
<rect x="447" width="375" height="812" rx="8" fill="url(#paint0_linear)"/>
<rect x="472" y="637" width="325" height="54" rx="7" fill="white"/>
<text fill="black" xml:space="preserve" style="white-space: pre" font-family="Roboto" font-size="18" letter-spacing="0em"><tspan x="596" y="670.652">Gerar link</tspan></text>
<path d="M493 599C493.429 599.574 493.977 600.049 494.607 600.393C495.236 600.737 495.932 600.941 496.647 600.992C497.362 601.044 498.08 600.94 498.751 600.69C499.423 600.439 500.033 600.047 500.54 599.54L503.54 596.54C504.451 595.597 504.955 594.334 504.943 593.023C504.932 591.712 504.406 590.458 503.479 589.531C502.552 588.604 501.298 588.078 499.987 588.067C498.676 588.055 497.413 588.559 496.47 589.47L494.75 591.18" stroke="white" stroke-width="2" stroke-linecap="round" stroke-linejoin="round"/>
<path d="M497 597C496.571 596.426 496.023 595.951 495.393 595.607C494.764 595.263 494.068 595.059 493.353 595.008C492.638 594.956 491.92 595.06 491.249 595.31C490.577 595.561 489.967 595.953 489.46 596.46L486.46 599.46C485.549 600.403 485.045 601.666 485.057 602.977C485.068 604.288 485.594 605.542 486.521 606.469C487.448 607.396 488.702 607.922 490.013 607.933C491.324 607.945 492.587 607.441 493.53 606.53L495.24 604.82" stroke="white" stroke-width="2" stroke-linecap="round" stroke-linejoin="round"/>
<rect x="472.5" y="571.5" width="324" height="53" rx="6.5" fill="white" fill-opacity="0.15" stroke="#14384D"/>
<text fill="white" xml:space="preserve" style="white-space: pre" font-family="Roboto" font-size="18" letter-spacing="0em"><tspan x="525" y="604.652">Cole seu link aqui...</tspan></text>
<text fill="white" xml:space="preserve" style="white-space: pre" font-family="Roboto" font-size="33" font-weight="bold" letter-spacing="0em"><tspan x="551" y="504.779">HenjuLink</tspan></text>
<text fill="white" xml:space="preserve" style="white-space: pre" font-family="Roboto" font-size="22" letter-spacing="0em"><tspan x="504" y="541.52">Cole seu link para encurtar</tspan></text>
<path d="M570.929 336.292L620.614 324.371L606.095 373.361L570.929 336.292Z" fill="white"/>
<rect x="545" y="194.807" width="169" height="155" rx="22" transform="rotate(-3.66624 545 194.807)" fill="white"/>
<path d="M625.533 271.12C627.412 273.632 629.809 275.71 632.561 277.214C635.314 278.718 638.358 279.612 641.487 279.836C644.616 280.06 647.756 279.609 650.695 278.513C653.634 277.416 656.303 275.701 658.52 273.482L671.645 260.357C675.63 256.232 677.835 250.706 677.785 244.97C677.735 239.235 675.435 233.748 671.379 229.692C667.323 225.637 661.836 223.336 656.101 223.286C650.365 223.236 644.84 225.441 640.714 229.426L633.189 236.907" stroke="#132742" stroke-width="5" stroke-linecap="round" stroke-linejoin="round"/>
<path d="M643.033 262.37C641.154 259.858 638.757 257.78 636.004 256.276C633.251 254.772 630.207 253.877 627.079 253.653C623.95 253.429 620.81 253.881 617.871 254.977C614.932 256.073 612.263 257.789 610.045 260.007L596.92 273.132C592.936 277.258 590.731 282.784 590.78 288.519C590.83 294.255 593.131 299.741 597.187 303.797C601.243 307.853 606.729 310.153 612.465 310.203C618.2 310.253 623.726 308.048 627.851 304.064L635.333 296.582" stroke="#132742" stroke-width="5" stroke-linecap="round" stroke-linejoin="round"/>
<path d="M475.75 54H498.25" stroke="white" stroke-width="2.5" stroke-linecap="round" stroke-linejoin="round"/>
<path d="M475.75 46.5H498.25" stroke="white" stroke-width="2.5" stroke-linecap="round" stroke-linejoin="round"/>
<path d="M475.75 61.5H498.25" stroke="white" stroke-width="2.5" stroke-linecap="round" stroke-linejoin="round"/>
<g clip-path="url(#clip3)">
<rect x="894" width="375" height="812" rx="8" fill="url(#paint1_linear)"/>
<rect x="919" y="637" width="325" height="54" rx="7" fill="white"/>
<text fill="black" xml:space="preserve" style="white-space: pre" font-family="Roboto" font-size="18" letter-spacing="0em"><tspan x="1043" y="670.652">Gerar link</tspan></text>
<path d="M940 599C940.429 599.574 940.977 600.049 941.607 600.393C942.236 600.737 942.932 600.941 943.647 600.992C944.362 601.044 945.08 600.94 945.751 600.69C946.423 600.439 947.033 600.047 947.54 599.54L950.54 596.54C951.451 595.597 951.955 594.334 951.943 593.023C951.932 591.712 951.406 590.458 950.479 589.531C949.552 588.604 948.298 588.078 946.987 588.067C945.676 588.055 944.413 588.559 943.47 589.47L941.75 591.18" stroke="white" stroke-width="2" stroke-linecap="round" stroke-linejoin="round"/>
<path d="M944 597C943.571 596.426 943.023 595.951 942.393 595.607C941.764 595.263 941.068 595.059 940.353 595.008C939.638 594.956 938.92 595.06 938.249 595.31C937.577 595.561 936.967 595.953 936.46 596.46L933.46 599.46C932.549 600.403 932.045 601.666 932.057 602.977C932.068 604.288 932.594 605.542 933.521 606.469C934.448 607.396 935.702 607.922 937.013 607.933C938.324 607.945 939.587 607.441 940.53 606.53L942.24 604.82" stroke="white" stroke-width="2" stroke-linecap="round" stroke-linejoin="round"/>
<rect x="919.5" y="571.5" width="324" height="53" rx="6.5" fill="white" fill-opacity="0.15" stroke="#14384D"/>
<text fill="white" xml:space="preserve" style="white-space: pre" font-family="Roboto" font-size="18" letter-spacing="0em"><tspan x="972" y="604.652">Cole seu link aqui...</tspan></text>
<text fill="white" xml:space="preserve" style="white-space: pre" font-family="Roboto" font-size="33" font-weight="bold" letter-spacing="0em"><tspan x="998" y="504.779">SujeitoLink</tspan></text>
<text fill="white" xml:space="preserve" style="white-space: pre" font-family="Roboto" font-size="22" letter-spacing="0em"><tspan x="951" y="541.52">Cole seu link para encurtar</tspan></text>
<path d="M1017.93 336.292L1067.61 324.371L1053.1 373.361L1017.93 336.292Z" fill="white"/>
<rect x="992" y="194.807" width="169" height="155" rx="22" transform="rotate(-3.66624 992 194.807)" fill="white"/>
<path d="M1072.53 271.12C1074.41 273.632 1076.81 275.71 1079.56 277.214C1082.31 278.718 1085.36 279.612 1088.49 279.836C1091.62 280.06 1094.76 279.609 1097.69 278.513C1100.63 277.416 1103.3 275.701 1105.52 273.482L1118.65 260.357C1122.63 256.232 1124.83 250.706 1124.78 244.97C1124.74 239.235 1122.43 233.748 1118.38 229.692C1114.32 225.637 1108.84 223.336 1103.1 223.286C1097.37 223.236 1091.84 225.441 1087.71 229.426L1080.19 236.907" stroke="#132742" stroke-width="5" stroke-linecap="round" stroke-linejoin="round"/>
<path d="M1090.03 262.37C1088.15 259.858 1085.76 257.78 1083 256.276C1080.25 254.772 1077.21 253.877 1074.08 253.653C1070.95 253.429 1067.81 253.881 1064.87 254.977C1061.93 256.073 1059.26 257.789 1057.05 260.007L1043.92 273.132C1039.94 277.258 1037.73 282.784 1037.78 288.519C1037.83 294.255 1040.13 299.741 1044.19 303.797C1048.24 307.853 1053.73 310.153 1059.46 310.203C1065.2 310.253 1070.73 308.048 1074.85 304.064L1082.33 296.582" stroke="#132742" stroke-width="5" stroke-linecap="round" stroke-linejoin="round"/>
<path d="M922.75 54H945.25" stroke="white" stroke-width="2.5" stroke-linecap="round" stroke-linejoin="round"/>
<path d="M922.75 46.5H945.25" stroke="white" stroke-width="2.5" stroke-linecap="round" stroke-linejoin="round"/>
<path d="M922.75 61.5H945.25" stroke="white" stroke-width="2.5" stroke-linecap="round" stroke-linejoin="round"/>
<g filter="url(#filter1_d)">
<rect x="894" y="407" width="375" height="406" rx="8" fill="white"/>
<text fill="#1CCBAE" xml:space="preserve" style="white-space: pre" font-family="Roboto" font-size="30" font-weight="bold" letter-spacing="0em"><tspan x="919" y="579.754">Link encurtado:</tspan></text>
<text fill="#A7A7A7" xml:space="preserve" style="white-space: pre" font-family="Roboto" font-size="20" letter-spacing="0em"><tspan x="919" y="616.336">https://sujeitoprogramador.com/</tspan></text>
<rect x="919" y="650" width="325" height="49" rx="7" fill="#172742"/>
<text fill="white" xml:space="preserve" style="white-space: pre" font-family="Roboto" font-size="18" letter-spacing="0em"><tspan x="934" y="680.652">https://bit.ly/3mJxeUq</tspan></text>
<path d="M1223 671H1214C1212.9 671 1212 671.895 1212 673V682C1212 683.105 1212.9 684 1214 684H1223C1224.1 684 1225 683.105 1225 682V673C1225 671.895 1224.1 671 1223 671Z" stroke="white" stroke-width="2" stroke-linecap="round" stroke-linejoin="round"/>
<path d="M1208 677H1207C1206.47 677 1205.96 676.789 1205.59 676.414C1205.21 676.039 1205 675.53 1205 675V666C1205 665.47 1205.21 664.961 1205.59 664.586C1205.96 664.211 1206.47 664 1207 664H1216C1216.53 664 1217.04 664.211 1217.41 664.586C1217.79 664.961 1218 665.47 1218 666V667" stroke="white" stroke-width="2" stroke-linecap="round" stroke-linejoin="round"/>
<path d="M943.75 453.25L927.25 469.75" stroke="#212743" stroke-width="2" stroke-linecap="round" stroke-linejoin="round"/>
<path d="M927.25 453.25L943.75 469.75" stroke="#212743" stroke-width="2" stroke-linecap="round" stroke-linejoin="round"/>
<path d="M1219 460V470C1219 470.663 1219.26 471.299 1219.73 471.768C1220.2 472.237 1220.84 472.5 1221.5 472.5H1236.5C1237.16 472.5 1237.8 472.237 1238.27 471.768C1238.74 471.299 1239 470.663 1239 470V460" stroke="black" stroke-width="2" stroke-linecap="round" stroke-linejoin="round"/>
<path d="M1234 452.5L1229 447.5L1224 452.5" stroke="black" stroke-width="2" stroke-linecap="round" stroke-linejoin="round"/>
<path d="M1229 447.5V463.75" stroke="black" stroke-width="2" stroke-linecap="round" stroke-linejoin="round"/>
</g>
</g>
<defs>
<filter id="filter0_d" x="77" y="286" width="225" height="237.756" filterUnits="userSpaceOnUse" color-interpolation-filters="sRGB">
<feFlood flood-opacity="0" result="BackgroundImageFix"/>
<feColorMatrix in="SourceAlpha" type="matrix" values="0 0 0 0 0 0 0 0 0 0 0 0 0 0 0 0 0 0 127 0"/>
<feOffset dx="2" dy="4"/>
<feGaussianBlur stdDeviation="3.5"/>
<feColorMatrix type="matrix" values="0 0 0 0 0 0 0 0 0 0 0 0 0 0 0 0 0 0 0.45 0"/>
<feBlend mode="normal" in2="BackgroundImageFix" result="effect1_dropShadow"/>
<feBlend mode="normal" in="SourceGraphic" in2="effect1_dropShadow" result="shape"/>
</filter>
<filter id="filter1_d" x="890" y="407" width="383" height="415" filterUnits="userSpaceOnUse" color-interpolation-filters="sRGB">
<feFlood flood-opacity="0" result="BackgroundImageFix"/>
<feColorMatrix in="SourceAlpha" type="matrix" values="0 0 0 0 0 0 0 0 0 0 0 0 0 0 0 0 0 0 127 0"/>
<feOffset dy="5"/>
<feGaussianBlur stdDeviation="2"/>
<feColorMatrix type="matrix" values="0 0 0 0 0 0 0 0 0 0 0 0 0 0 0 0 0 0 0.75 0"/>
<feBlend mode="normal" in2="BackgroundImageFix" result="effect1_dropShadow"/>
<feBlend mode="normal" in="SourceGraphic" in2="effect1_dropShadow" result="shape"/>
</filter>
<linearGradient id="paint0_linear" x1="634.5" y1="0" x2="634.5" y2="812" gradientUnits="userSpaceOnUse">
<stop stop-color="#1DDBB9"/>
<stop offset="1" stop-color="#132742"/>
</linearGradient>
<linearGradient id="paint1_linear" x1="1081.5" y1="0" x2="1081.5" y2="812" gradientUnits="userSpaceOnUse">
<stop stop-color="#1DDBB9"/>
<stop offset="1" stop-color="#132742"/>
</linearGradient>
<clipPath id="clip0">
<rect x="894" y="874" width="375" height="812" rx="8" fill="white"/>
</clipPath>
<clipPath id="clip1">
<rect x="894" y="874" width="375" height="812" rx="8" fill="white"/>
</clipPath>
<clipPath id="clip2">
<rect x="894" y="874" width="375" height="812" rx="8" fill="white"/>
</clipPath>
<clipPath id="clip3">
<rect x="894" width="375" height="812" rx="8" fill="white"/>
</clipPath>
</defs>
</svg>
