<svg width="1277" height="1694" viewBox="0 0 1277 1694" fill="none" xmlns="http://www.w3.org/2000/svg">
<g filter="url(#filter0_d)">
<rect width="375" height="812" transform="translate(4)" fill="white"/>
<g filter="url(#filter1_d)">
<path d="M116.638 468.954L175.349 454.868L158.192 512.756L116.638 468.954Z" fill="#132742"/>
<rect x="86" y="301.77" width="199.697" height="183.154" rx="43.491" transform="rotate(-3.66624 86 301.77)" fill="#132742"/>
<path d="M181.161 391.944C183.381 394.912 186.213 397.368 189.466 399.145C192.719 400.922 196.316 401.979 200.013 402.244C203.71 402.509 207.421 401.975 210.893 400.68C214.366 399.384 217.52 397.357 220.14 394.736L235.649 379.227C240.358 374.352 242.963 367.822 242.904 361.045C242.845 354.268 240.127 347.784 235.334 342.992C230.542 338.199 224.059 335.481 217.281 335.422C210.504 335.363 203.975 337.969 199.099 342.677L190.208 351.517" stroke="white" stroke-width="9.88433" stroke-linecap="round" stroke-linejoin="round"/>
<path d="M201.839 381.605C199.619 378.637 196.787 376.181 193.534 374.404C190.281 372.627 186.684 371.57 182.987 371.305C179.29 371.04 175.58 371.574 172.107 372.869C168.634 374.165 165.481 376.192 162.86 378.813L147.351 394.322C142.643 399.197 140.037 405.727 140.096 412.504C140.155 419.281 142.873 425.764 147.666 430.557C152.458 435.349 158.942 438.068 165.719 438.127C172.496 438.186 179.026 435.58 183.901 430.872L192.741 422.032" stroke="white" stroke-width="9.88433" stroke-linecap="round" stroke-linejoin="round"/>
</g>
<g clip-path="url(#clip0)">
<rect x="898" y="874" width="375" height="812" rx="8" fill="#132742"/>
<rect x="1192.37" y="1033" width="55.6296" height="54" rx="7" fill="#FF5555"/>
<path d="M1210 1054H1212H1228" stroke="white" stroke-width="2" stroke-linecap="round" stroke-linejoin="round"/>
<path d="M1215 1054V1052C1215 1051.47 1215.21 1050.96 1215.59 1050.59C1215.96 1050.21 1216.47 1050 1217 1050H1221C1221.53 1050 1222.04 1050.21 1222.41 1050.59C1222.79 1050.96 1223 1051.47 1223 1052V1054M1226 1054V1068C1226 1068.53 1225.79 1069.04 1225.41 1069.41C1225.04 1069.79 1224.53 1070 1224 1070H1214C1213.47 1070 1212.96 1069.79 1212.59 1069.41C1212.21 1069.04 1212 1068.53 1212 1068V1054H1226Z" stroke="white" stroke-width="2" stroke-linecap="round" stroke-linejoin="round"/>
<path d="M888.37 1061C888.8 1061.57 889.348 1062.05 889.977 1062.39C890.606 1062.74 891.302 1062.94 892.017 1062.99C892.732 1063.04 893.45 1062.94 894.122 1062.69C894.793 1062.44 895.403 1062.05 895.91 1061.54L898.91 1058.54C899.821 1057.6 900.325 1056.33 900.314 1055.02C900.302 1053.71 899.776 1052.46 898.849 1051.53C897.922 1050.6 896.668 1050.08 895.357 1050.07C894.046 1050.06 892.783 1050.56 891.84 1051.47L890.12 1053.18" stroke="white" stroke-width="2" stroke-linecap="round" stroke-linejoin="round"/>
<rect x="849" y="1033" width="325" height="54" rx="7" fill="white" fill-opacity="0.15"/>
<text fill="white" xml:space="preserve" style="white-space: pre" font-family="Roboto" font-size="20" letter-spacing="0em"><tspan x="902" y="1068.34">https://sujeitoprogramador.c</tspan></text>
<path d="M944 1132C944.429 1132.57 944.977 1133.05 945.607 1133.39C946.236 1133.74 946.932 1133.94 947.647 1133.99C948.362 1134.04 949.08 1133.94 949.751 1133.69C950.423 1133.44 951.033 1133.05 951.54 1132.54L954.54 1129.54C955.451 1128.6 955.955 1127.33 955.943 1126.02C955.932 1124.71 955.406 1123.46 954.479 1122.53C953.552 1121.6 952.298 1121.08 950.987 1121.07C949.676 1121.06 948.413 1121.56 947.47 1122.47L945.75 1124.18" stroke="white" stroke-width="2" stroke-linecap="round" stroke-linejoin="round"/>
<path d="M948 1130C947.571 1129.43 947.023 1128.95 946.393 1128.61C945.764 1128.26 945.068 1128.06 944.353 1128.01C943.638 1127.96 942.92 1128.06 942.249 1128.31C941.577 1128.56 940.967 1128.95 940.46 1129.46L937.46 1132.46C936.549 1133.4 936.045 1134.67 936.057 1135.98C936.068 1137.29 936.594 1138.54 937.521 1139.47C938.448 1140.4 939.702 1140.92 941.013 1140.93C942.324 1140.94 943.587 1140.44 944.53 1139.53L946.24 1137.82" stroke="white" stroke-width="2" stroke-linecap="round" stroke-linejoin="round"/>
<rect x="923" y="1104" width="325" height="54" rx="7" fill="white" fill-opacity="0.15"/>
<text fill="white" xml:space="preserve" style="white-space: pre" font-family="Roboto" font-size="20" letter-spacing="0em"><tspan x="976" y="1139.34">https://globo.com</tspan></text>
<path d="M944 1203C944.429 1203.57 944.977 1204.05 945.607 1204.39C946.236 1204.74 946.932 1204.94 947.647 1204.99C948.362 1205.04 949.08 1204.94 949.751 1204.69C950.423 1204.44 951.033 1204.05 951.54 1203.54L954.54 1200.54C955.451 1199.6 955.955 1198.33 955.943 1197.02C955.932 1195.71 955.406 1194.46 954.479 1193.53C953.552 1192.6 952.298 1192.08 950.987 1192.07C949.676 1192.06 948.413 1192.56 947.47 1193.47L945.75 1195.18" stroke="white" stroke-width="2" stroke-linecap="round" stroke-linejoin="round"/>
<path d="M948 1201C947.571 1200.43 947.023 1199.95 946.393 1199.61C945.764 1199.26 945.068 1199.06 944.353 1199.01C943.638 1198.96 942.92 1199.06 942.249 1199.31C941.577 1199.56 940.967 1199.95 940.46 1200.46L937.46 1203.46C936.549 1204.4 936.045 1205.67 936.057 1206.98C936.068 1208.29 936.594 1209.54 937.521 1210.47C938.448 1211.4 939.702 1211.92 941.013 1211.93C942.324 1211.94 943.587 1211.44 944.53 1210.53L946.24 1208.82" stroke="white" stroke-width="2" stroke-linecap="round" stroke-linejoin="round"/>
<rect x="923" y="1175" width="325" height="54" rx="7" fill="white" fill-opacity="0.15"/>
<text fill="white" xml:space="preserve" style="white-space: pre" font-family="Roboto" font-size="20" letter-spacing="0em"><tspan x="976" y="1210.34">https://youtube.com</tspan></text>
<path d="M926.75 928H949.25" stroke="white" stroke-width="2.5" stroke-linecap="round" stroke-linejoin="round"/>
<path d="M926.75 920.5H949.25" stroke="white" stroke-width="2.5" stroke-linecap="round" stroke-linejoin="round"/>
<path d="M926.75 935.5H949.25" stroke="white" stroke-width="2.5" stroke-linecap="round" stroke-linejoin="round"/>
<text fill="white" xml:space="preserve" style="white-space: pre" font-family="Roboto" font-size="33" font-weight="bold" letter-spacing="0em"><tspan x="923" y="1007.78">Meus links</tspan></text>
</g>
<g clip-path="url(#clip1)">
<rect x="898" y="874" width="375" height="812" rx="8" fill="#132742"/>
<rect x="1192.37" y="1033" width="55.6296" height="54" rx="7" fill="#FF5555"/>
<path d="M1210 1054H1212H1228" stroke="white" stroke-width="2" stroke-linecap="round" stroke-linejoin="round"/>
<path d="M1215 1054V1052C1215 1051.47 1215.21 1050.96 1215.59 1050.59C1215.96 1050.21 1216.47 1050 1217 1050H1221C1221.53 1050 1222.04 1050.21 1222.41 1050.59C1222.79 1050.96 1223 1051.47 1223 1052V1054M1226 1054V1068C1226 1068.53 1225.79 1069.04 1225.41 1069.41C1225.04 1069.79 1224.53 1070 1224 1070H1214C1213.47 1070 1212.96 1069.79 1212.59 1069.41C1212.21 1069.04 1212 1068.53 1212 1068V1054H1226Z" stroke="white" stroke-width="2" stroke-linecap="round" stroke-linejoin="round"/>
<path d="M888.37 1061C888.8 1061.57 889.348 1062.05 889.977 1062.39C890.606 1062.74 891.302 1062.94 892.017 1062.99C892.732 1063.04 893.45 1062.94 894.122 1062.69C894.793 1062.44 895.403 1062.05 895.91 1061.54L898.91 1058.54C899.821 1057.6 900.325 1056.33 900.314 1055.02C900.302 1053.71 899.776 1052.46 898.849 1051.53C897.922 1050.6 896.668 1050.08 895.357 1050.07C894.046 1050.06 892.783 1050.56 891.84 1051.47L890.12 1053.18" stroke="white" stroke-width="2" stroke-linecap="round" stroke-linejoin="round"/>
<rect x="849" y="1033" width="325" height="54" rx="7" fill="white" fill-opacity="0.15"/>
<text fill="white" xml:space="preserve" style="white-space: pre" font-family="Roboto" font-size="20" letter-spacing="0em"><tspan x="902" y="1068.34">https://sujeitoprogramador.c</tspan></text>
<path d="M944 1132C944.429 1132.57 944.977 1133.05 945.607 1133.39C946.236 1133.74 946.932 1133.94 947.647 1133.99C948.362 1134.04 949.08 1133.94 949.751 1133.69C950.423 1133.44 951.033 1133.05 951.54 1132.54L954.54 1129.54C955.451 1128.6 955.955 1127.33 955.943 1126.02C955.932 1124.71 955.406 1123.46 954.479 1122.53C953.552 1121.6 952.298 1121.08 950.987 1121.07C949.676 1121.06 948.413 1121.56 947.47 1122.47L945.75 1124.18" stroke="white" stroke-width="2" stroke-linecap="round" stroke-linejoin="round"/>
<path d="M948 1130C947.571 1129.43 947.023 1128.95 946.393 1128.61C945.764 1128.26 945.068 1128.06 944.353 1128.01C943.638 1127.96 942.92 1128.06 942.249 1128.31C941.577 1128.56 940.967 1128.95 940.46 1129.46L937.46 1132.46C936.549 1133.4 936.045 1134.67 936.057 1135.98C936.068 1137.29 936.594 1138.54 937.521 1139.47C938.448 1140.4 939.702 1140.92 941.013 1140.93C942.324 1140.94 943.587 1140.44 944.53 1139.53L946.24 1137.82" stroke="white" stroke-width="2" stroke-linecap="round" stroke-linejoin="round"/>
<rect x="923" y="1104" width="325" height="54" rx="7" fill="white" fill-opacity="0.15"/>
<text fill="white" xml:space="preserve" style="white-space: pre" font-family="Roboto" font-size="20" letter-spacing="0em"><tspan x="976" y="1139.34">https://globo.com</tspan></text>
<path d="M944 1203C944.429 1203.57 944.977 1204.05 945.607 1204.39C946.236 1204.74 946.932 1204.94 947.647 1204.99C948.362 1205.04 949.08 1204.94 949.751 1204.69C950.423 1204.44 951.033 1204.05 951.54 1203.54L954.54 1200.54C955.451 1199.6 955.955 1198.33 955.943 1197.02C955.932 1195.71 955.406 1194.46 954.479 1193.53C953.552 1192.6 952.298 1192.08 950.987 1192.07C949.676 1192.06 948.413 1192.56 947.47 1193.47L945.75 1195.18" stroke="white" stroke-width="2" stroke-linecap="round" stroke-linejoin="round"/>
<path d="M948 1201C947.571 1200.43 947.023 1199.95 946.393 1199.61C945.764 1199.26 945.068 1199.06 944.353 1199.01C943.638 1198.96 942.92 1199.06 942.249 1199.31C941.577 1199.56 940.967 1199.95 940.46 1200.46L937.46 1203.46C936.549 1204.4 936.045 1205.67 936.057 1206.98C936.068 1208.29 936.594 1209.54 937.521 1210.47C938.448 1211.4 939.702 1211.92 941.013 1211.93C942.324 1211.94 943.587 1211.44 944.53 1210.53L946.24 1208.82" stroke="white" stroke-width="2" stroke-linecap="round" stroke-linejoin="round"/>
<rect x="923" y="1175" width="325" height="54" rx="7" fill="white" fill-opacity="0.15"/>
<text fill="white" xml:space="preserve" style="white-space: pre" font-family="Roboto" font-size="20" letter-spacing="0em"><tspan x="976" y="1210.34">https://youtube.com</tspan></text>
<path d="M926.75 928H949.25" stroke="white" stroke-width="2.5" stroke-linecap="round" stroke-linejoin="round"/>
<path d="M926.75 920.5H949.25" stroke="white" stroke-width="2.5" stroke-linecap="round" stroke-linejoin="round"/>
<path d="M926.75 935.5H949.25" stroke="white" stroke-width="2.5" stroke-linecap="round" stroke-linejoin="round"/>
<text fill="white" xml:space="preserve" style="white-space: pre" font-family="Roboto" font-size="33" font-weight="bold" letter-spacing="0em"><tspan x="923" y="1007.78">Meus links</tspan></text>
</g>
<g clip-path="url(#clip2)">
<rect x="898" y="874" width="375" height="812" rx="8" fill="#132742"/>
<rect x="1192.37" y="1033" width="55.6296" height="54" rx="7" fill="#FF5555"/>
<path d="M1210 1054H1212H1228" stroke="white" stroke-width="2" stroke-linecap="round" stroke-linejoin="round"/>
<path d="M1215 1054V1052C1215 1051.47 1215.21 1050.96 1215.59 1050.59C1215.96 1050.21 1216.47 1050 1217 1050H1221C1221.53 1050 1222.04 1050.21 1222.41 1050.59C1222.79 1050.96 1223 1051.47 1223 1052V1054M1226 1054V1068C1226 1068.53 1225.79 1069.04 1225.41 1069.41C1225.04 1069.79 1224.53 1070 1224 1070H1214C1213.47 1070 1212.96 1069.79 1212.59 1069.41C1212.21 1069.04 1212 1068.53 1212 1068V1054H1226Z" stroke="white" stroke-width="2" stroke-linecap="round" stroke-linejoin="round"/>
<path d="M888.37 1061C888.8 1061.57 889.348 1062.05 889.977 1062.39C890.606 1062.74 891.302 1062.94 892.017 1062.99C892.732 1063.04 893.45 1062.94 894.122 1062.69C894.793 1062.44 895.403 1062.05 895.91 1061.54L898.91 1058.54C899.821 1057.6 900.325 1056.33 900.314 1055.02C900.302 1053.71 899.776 1052.46 898.849 1051.53C897.922 1050.6 896.668 1050.08 895.357 1050.07C894.046 1050.06 892.783 1050.56 891.84 1051.47L890.12 1053.18" stroke="white" stroke-width="2" stroke-linecap="round" stroke-linejoin="round"/>
<rect x="849" y="1033" width="325" height="54" rx="7" fill="white" fill-opacity="0.15"/>
<text fill="white" xml:space="preserve" style="white-space: pre" font-family="Roboto" font-size="20" letter-spacing="0em"><tspan x="902" y="1068.34">https://sujeitoprogramador.c</tspan></text>
<path d="M944 1132C944.429 1132.57 944.977 1133.05 945.607 1133.39C946.236 1133.74 946.932 1133.94 947.647 1133.99C948.362 1134.04 949.08 1133.94 949.751 1133.69C950.423 1133.44 951.033 1133.05 951.54 1132.54L954.54 1129.54C955.451 1128.6 955.955 1127.33 955.943 1126.02C955.932 1124.71 955.406 1123.46 954.479 1122.53C953.552 1121.6 952.298 1121.08 950.987 1121.07C949.676 1121.06 948.413 1121.56 947.47 1122.47L945.75 1124.18" stroke="white" stroke-width="2" stroke-linecap="round" stroke-linejoin="round"/>
<path d="M948 1130C947.571 1129.43 947.023 1128.95 946.393 1128.61C945.764 1128.26 945.068 1128.06 944.353 1128.01C943.638 1127.96 942.92 1128.06 942.249 1128.31C941.577 1128.56 940.967 1128.95 940.46 1129.46L937.46 1132.46C936.549 1133.4 936.045 1134.67 936.057 1135.98C936.068 1137.29 936.594 1138.54 937.521 1139.47C938.448 1140.4 939.702 1140.92 941.013 1140.93C942.324 1140.94 943.587 1140.44 944.53 1139.53L946.24 1137.82" stroke="white" stroke-width="2" stroke-linecap="round" stroke-linejoin="round"/>
<rect x="923" y="1104" width="325" height="54" rx="7" fill="white" fill-opacity="0.15"/>
<text fill="white" xml:space="preserve" style="white-space: pre" font-family="Roboto" font-size="20" letter-spacing="0em"><tspan x="976" y="1139.34">https://globo.com</tspan></text>
<path d="M944 1203C944.429 1203.57 944.977 1204.05 945.607 1204.39C946.236 1204.74 946.932 1204.94 947.647 1204.99C948.362 1205.04 949.08 1204.94 949.751 1204.69C950.423 1204.44 951.033 1204.05 951.54 1203.54L954.54 1200.54C955.451 1199.6 955.955 1198.33 955.943 1197.02C955.932 1195.71 955.406 1194.46 954.479 1193.53C953.552 1192.6 952.298 1192.08 950.987 1192.07C949.676 1192.06 948.413 1192.56 947.47 1193.47L945.75 1195.18" stroke="white" stroke-width="2" stroke-linecap="round" stroke-linejoin="round"/>
<path d="M948 1201C947.571 1200.43 947.023 1199.95 946.393 1199.61C945.764 1199.26 945.068 1199.06 944.353 1199.01C943.638 1198.96 942.92 1199.06 942.249 1199.31C941.577 1199.56 940.967 1199.95 940.46 1200.46L937.46 1203.46C936.549 1204.4 936.045 1205.67 936.057 1206.98C936.068 1208.29 936.594 1209.54 937.521 1210.47C938.448 1211.4 939.702 1211.92 941.013 1211.93C942.324 1211.94 943.587 1211.44 944.53 1210.53L946.24 1208.82" stroke="white" stroke-width="2" stroke-linecap="round" stroke-linejoin="round"/>
<rect x="923" y="1175" width="325" height="54" rx="7" fill="white" fill-opacity="0.15"/>
<text fill="white" xml:space="preserve" style="white-space: pre" font-family="Roboto" font-size="20" letter-spacing="0em"><tspan x="976" y="1210.34">https://youtube.com</tspan></text>
<path d="M926.75 928H949.25" stroke="white" stroke-width="2.5" stroke-linecap="round" stroke-linejoin="round"/>
<path d="M926.75 920.5H949.25" stroke="white" stroke-width="2.5" stroke-linecap="round" stroke-linejoin="round"/>
<path d="M926.75 935.5H949.25" stroke="white" stroke-width="2.5" stroke-linecap="round" stroke-linejoin="round"/>
<text fill="white" xml:space="preserve" style="white-space: pre" font-family="Roboto" font-size="33" font-weight="bold" letter-spacing="0em"><tspan x="923" y="1007.78">Meus links</tspan></text>
</g>
<rect x="4" y="874" width="375" height="812" rx="8" fill="#132742"/>
<path d="M50 1061C50.4295 1061.57 50.9774 1062.05 51.6066 1062.39C52.2357 1062.74 52.9315 1062.94 53.6467 1062.99C54.3618 1063.04 55.0796 1062.94 55.7513 1062.69C56.4231 1062.44 57.0331 1062.05 57.54 1061.54L60.54 1058.54C61.4508 1057.6 61.9548 1056.33 61.9434 1055.02C61.932 1053.71 61.4061 1052.46 60.4791 1051.53C59.5521 1050.6 58.298 1050.08 56.987 1050.07C55.676 1050.06 54.413 1050.56 53.47 1051.47L51.75 1053.18" stroke="white" stroke-width="2" stroke-linecap="round" stroke-linejoin="round"/>
<path d="M54 1059C53.5706 1058.43 53.0227 1057.95 52.3935 1057.61C51.7643 1057.26 51.0685 1057.06 50.3534 1057.01C49.6382 1056.96 48.9204 1057.06 48.2487 1057.31C47.5769 1057.56 46.9669 1057.95 46.46 1058.46L43.46 1061.46C42.5492 1062.4 42.0453 1063.67 42.0566 1064.98C42.068 1066.29 42.5939 1067.54 43.5209 1068.47C44.448 1069.4 45.702 1069.92 47.013 1069.93C48.324 1069.94 49.587 1069.44 50.53 1068.53L52.24 1066.82" stroke="white" stroke-width="2" stroke-linecap="round" stroke-linejoin="round"/>
<rect x="29" y="1033" width="325" height="54" rx="7" fill="white" fill-opacity="0.15"/>
<text fill="white" xml:space="preserve" style="white-space: pre" font-family="Roboto" font-size="20" letter-spacing="0em"><tspan x="82" y="1068.34">https://sujeitoprogramador.c</tspan></text>
<path d="M50 1132C50.4295 1132.57 50.9774 1133.05 51.6066 1133.39C52.2357 1133.74 52.9315 1133.94 53.6467 1133.99C54.3618 1134.04 55.0796 1133.94 55.7513 1133.69C56.4231 1133.44 57.0331 1133.05 57.54 1132.54L60.54 1129.54C61.4508 1128.6 61.9548 1127.33 61.9434 1126.02C61.932 1124.71 61.4061 1123.46 60.4791 1122.53C59.5521 1121.6 58.298 1121.08 56.987 1121.07C55.676 1121.06 54.413 1121.56 53.47 1122.47L51.75 1124.18" stroke="white" stroke-width="2" stroke-linecap="round" stroke-linejoin="round"/>
<path d="M54 1130C53.5706 1129.43 53.0227 1128.95 52.3935 1128.61C51.7643 1128.26 51.0685 1128.06 50.3534 1128.01C49.6382 1127.96 48.9204 1128.06 48.2487 1128.31C47.5769 1128.56 46.9669 1128.95 46.46 1129.46L43.46 1132.46C42.5492 1133.4 42.0453 1134.67 42.0566 1135.98C42.068 1137.29 42.5939 1138.54 43.5209 1139.47C44.448 1140.4 45.702 1140.92 47.013 1140.93C48.324 1140.94 49.587 1140.44 50.53 1139.53L52.24 1137.82" stroke="white" stroke-width="2" stroke-linecap="round" stroke-linejoin="round"/>
<rect x="29" y="1104" width="325" height="54" rx="7" fill="white" fill-opacity="0.15"/>
<text fill="white" xml:space="preserve" style="white-space: pre" font-family="Roboto" font-size="20" letter-spacing="0em"><tspan x="82" y="1139.34">https://globo.com</tspan></text>
<path d="M50 1203C50.4295 1203.57 50.9774 1204.05 51.6066 1204.39C52.2357 1204.74 52.9315 1204.94 53.6467 1204.99C54.3618 1205.04 55.0796 1204.94 55.7513 1204.69C56.4231 1204.44 57.0331 1204.05 57.54 1203.54L60.54 1200.54C61.4508 1199.6 61.9548 1198.33 61.9434 1197.02C61.932 1195.71 61.4061 1194.46 60.4791 1193.53C59.5521 1192.6 58.298 1192.08 56.987 1192.07C55.676 1192.06 54.413 1192.56 53.47 1193.47L51.75 1195.18" stroke="white" stroke-width="2" stroke-linecap="round" stroke-linejoin="round"/>
<path d="M54 1201C53.5706 1200.43 53.0227 1199.95 52.3935 1199.61C51.7643 1199.26 51.0685 1199.06 50.3534 1199.01C49.6382 1198.96 48.9204 1199.06 48.2487 1199.31C47.5769 1199.56 46.9669 1199.95 46.46 1200.46L43.46 1203.46C42.5492 1204.4 42.0453 1205.67 42.0566 1206.98C42.068 1208.29 42.5939 1209.54 43.5209 1210.47C44.448 1211.4 45.702 1211.92 47.013 1211.93C48.324 1211.94 49.587 1211.44 50.53 1210.53L52.24 1208.82" stroke="white" stroke-width="2" stroke-linecap="round" stroke-linejoin="round"/>
<rect x="29" y="1175" width="325" height="54" rx="7" fill="white" fill-opacity="0.15"/>
<text fill="white" xml:space="preserve" style="white-space: pre" font-family="Roboto" font-size="20" letter-spacing="0em"><tspan x="82" y="1210.34">https://youtube.com</tspan></text>
<path d="M32.75 928H55.25" stroke="white" stroke-width="2.5" stroke-linecap="round" stroke-linejoin="round"/>
<path d="M32.75 920.5H55.25" stroke="white" stroke-width="2.5" stroke-linecap="round" stroke-linejoin="round"/>
<path d="M32.75 935.5H55.25" stroke="white" stroke-width="2.5" stroke-linecap="round" stroke-linejoin="round"/>
<text fill="white" xml:space="preserve" style="white-space: pre" font-family="Roboto" font-size="33" font-weight="bold" letter-spacing="0em"><tspan x="29" y="1007.78">Meus links</tspan></text>
<rect x="4" y="874" width="375" height="812" rx="8" fill="#132742"/>
<path d="M50 1061C50.4295 1061.57 50.9774 1062.05 51.6066 1062.39C52.2357 1062.74 52.9315 1062.94 53.6467 1062.99C54.3618 1063.04 55.0796 1062.94 55.7513 1062.69C56.4231 1062.44 57.0331 1062.05 57.54 1061.54L60.54 1058.54C61.4508 1057.6 61.9548 1056.33 61.9434 1055.02C61.932 1053.71 61.4061 1052.46 60.4791 1051.53C59.5521 1050.6 58.298 1050.08 56.987 1050.07C55.676 1050.06 54.413 1050.56 53.47 1051.47L51.75 1053.18" stroke="white" stroke-width="2" stroke-linecap="round" stroke-linejoin="round"/>
<path d="M54 1059C53.5706 1058.43 53.0227 1057.95 52.3935 1057.61C51.7643 1057.26 51.0685 1057.06 50.3534 1057.01C49.6382 1056.96 48.9204 1057.06 48.2487 1057.31C47.5769 1057.56 46.9669 1057.95 46.46 1058.46L43.46 1061.46C42.5492 1062.4 42.0453 1063.67 42.0566 1064.98C42.068 1066.29 42.5939 1067.54 43.5209 1068.47C44.448 1069.4 45.702 1069.92 47.013 1069.93C48.324 1069.94 49.587 1069.44 50.53 1068.53L52.24 1066.82" stroke="white" stroke-width="2" stroke-linecap="round" stroke-linejoin="round"/>
<rect x="29" y="1033" width="325" height="54" rx="7" fill="white" fill-opacity="0.15"/>
<text fill="white" xml:space="preserve" style="white-space: pre" font-family="Roboto" font-size="20" letter-spacing="0em"><tspan x="82" y="1068.34">https://sujeitoprogramador.c</tspan></text>
<path d="M50 1132C50.4295 1132.57 50.9774 1133.05 51.6066 1133.39C52.2357 1133.74 52.9315 1133.94 53.6467 1133.99C54.3618 1134.04 55.0796 1133.94 55.7513 1133.69C56.4231 1133.44 57.0331 1133.05 57.54 1132.54L60.54 1129.54C61.4508 1128.6 61.9548 1127.33 61.9434 1126.02C61.932 1124.71 61.4061 1123.46 60.4791 1122.53C59.5521 1121.6 58.298 1121.08 56.987 1121.07C55.676 1121.06 54.413 1121.56 53.47 1122.47L51.75 1124.18" stroke="white" stroke-width="2" stroke-linecap="round" stroke-linejoin="round"/>
<path d="M54 1130C53.5706 1129.43 53.0227 1128.95 52.3935 1128.61C51.7643 1128.26 51.0685 1128.06 50.3534 1128.01C49.6382 1127.96 48.9204 1128.06 48.2487 1128.31C47.5769 1128.56 46.9669 1128.95 46.46 1129.46L43.46 1132.46C42.5492 1133.4 42.0453 1134.67 42.0566 1135.98C42.068 1137.29 42.5939 1138.54 43.5209 1139.47C44.448 1140.4 45.702 1140.92 47.013 1140.93C48.324 1140.94 49.587 1140.44 50.53 1139.53L52.24 1137.82" stroke="white" stroke-width="2" stroke-linecap="round" stroke-linejoin="round"/>
<rect x="29" y="1104" width="325" height="54" rx="7" fill="white" fill-opacity="0.15"/>
<text fill="white" xml:space="preserve" style="white-space: pre" font-family="Roboto" font-size="20" letter-spacing="0em"><tspan x="82" y="1139.34">https://globo.com</tspan></text>
<path d="M50 1203C50.4295 1203.57 50.9774 1204.05 51.6066 1204.39C52.2357 1204.74 52.9315 1204.94 53.6467 1204.99C54.3618 1205.04 55.0796 1204.94 55.7513 1204.69C56.4231 1204.44 57.0331 1204.05 57.54 1203.54L60.54 1200.54C61.4508 1199.6 61.9548 1198.33 61.9434 1197.02C61.932 1195.71 61.4061 1194.46 60.4791 1193.53C59.5521 1192.6 58.298 1192.08 56.987 1192.07C55.676 1192.06 54.413 1192.56 53.47 1193.47L51.75 1195.18" stroke="white" stroke-width="2" stroke-linecap="round" stroke-linejoin="round"/>
<path d="M54 1201C53.5706 1200.43 53.0227 1199.95 52.3935 1199.61C51.7643 1199.26 51.0685 1199.06 50.3534 1199.01C49.6382 1198.96 48.9204 1199.06 48.2487 1199.31C47.5769 1199.56 46.9669 1199.95 46.46 1200.46L43.46 1203.46C42.5492 1204.4 42.0453 1205.67 42.0566 1206.98C42.068 1208.29 42.5939 1209.54 43.5209 1210.47C44.448 1211.4 45.702 1211.92 47.013 1211.93C48.324 1211.94 49.587 1211.44 50.53 1210.53L52.24 1208.82" stroke="white" stroke-width="2" stroke-linecap="round" stroke-linejoin="round"/>
<rect x="29" y="1175" width="325" height="54" rx="7" fill="white" fill-opacity="0.15"/>
<text fill="white" xml:space="preserve" style="white-space: pre" font-family="Roboto" font-size="20" letter-spacing="0em"><tspan x="82" y="1210.34">https://youtube.com</tspan></text>
<path d="M32.75 928H55.25" stroke="white" stroke-width="2.5" stroke-linecap="round" stroke-linejoin="round"/>
<path d="M32.75 920.5H55.25" stroke="white" stroke-width="2.5" stroke-linecap="round" stroke-linejoin="round"/>
<path d="M32.75 935.5H55.25" stroke="white" stroke-width="2.5" stroke-linecap="round" stroke-linejoin="round"/>
<text fill="white" xml:space="preserve" style="white-space: pre" font-family="Roboto" font-size="33" font-weight="bold" letter-spacing="0em"><tspan x="29" y="1007.78">Meus links</tspan></text>
<rect x="4" y="874" width="375" height="812" rx="8" fill="#132742"/>
<path d="M50 1061C50.4295 1061.57 50.9774 1062.05 51.6066 1062.39C52.2357 1062.74 52.9315 1062.94 53.6467 1062.99C54.3618 1063.04 55.0796 1062.94 55.7513 1062.69C56.4231 1062.44 57.0331 1062.05 57.54 1061.54L60.54 1058.54C61.4508 1057.6 61.9548 1056.33 61.9434 1055.02C61.932 1053.71 61.4061 1052.46 60.4791 1051.53C59.5521 1050.6 58.298 1050.08 56.987 1050.07C55.676 1050.06 54.413 1050.56 53.47 1051.47L51.75 1053.18" stroke="white" stroke-width="2" stroke-linecap="round" stroke-linejoin="round"/>
<path d="M54 1059C53.5706 1058.43 53.0227 1057.95 52.3935 1057.61C51.7643 1057.26 51.0685 1057.06 50.3534 1057.01C49.6382 1056.96 48.9204 1057.06 48.2487 1057.31C47.5769 1057.56 46.9669 1057.95 46.46 1058.46L43.46 1061.46C42.5492 1062.4 42.0453 1063.67 42.0566 1064.98C42.068 1066.29 42.5939 1067.54 43.5209 1068.47C44.448 1069.4 45.702 1069.92 47.013 1069.93C48.324 1069.94 49.587 1069.44 50.53 1068.53L52.24 1066.82" stroke="white" stroke-width="2" stroke-linecap="round" stroke-linejoin="round"/>
<rect x="29" y="1033" width="325" height="54" rx="7" fill="white" fill-opacity="0.15"/>
<text fill="white" xml:space="preserve" style="white-space: pre" font-family="Roboto" font-size="20" letter-spacing="0em"><tspan x="82" y="1068.34">https://sujeitoprogramador.c</tspan></text>
<path d="M50 1132C50.4295 1132.57 50.9774 1133.05 51.6066 1133.39C52.2357 1133.74 52.9315 1133.94 53.6467 1133.99C54.3618 1134.04 55.0796 1133.94 55.7513 1133.69C56.4231 1133.44 57.0331 1133.05 57.54 1132.54L60.54 1129.54C61.4508 1128.6 61.9548 1127.33 61.9434 1126.02C61.932 1124.71 61.4061 1123.46 60.4791 1122.53C59.5521 1121.6 58.298 1121.08 56.987 1121.07C55.676 1121.06 54.413 1121.56 53.47 1122.47L51.75 1124.18" stroke="white" stroke-width="2" stroke-linecap="round" stroke-linejoin="round"/>
<path d="M54 1130C53.5706 1129.43 53.0227 1128.95 52.3935 1128.61C51.7643 1128.26 51.0685 1128.06 50.3534 1128.01C49.6382 1127.96 48.9204 1128.06 48.2487 1128.31C47.5769 1128.56 46.9669 1128.95 46.46 1129.46L43.46 1132.46C42.5492 1133.4 42.0453 1134.67 42.0566 1135.98C42.068 1137.29 42.5939 1138.54 43.5209 1139.47C44.448 1140.4 45.702 1140.92 47.013 1140.93C48.324 1140.94 49.587 1140.44 50.53 1139.53L52.24 1137.82" stroke="white" stroke-width="2" stroke-linecap="round" stroke-linejoin="round"/>
<rect x="29" y="1104" width="325" height="54" rx="7" fill="white" fill-opacity="0.15"/>
<text fill="white" xml:space="preserve" style="white-space: pre" font-family="Roboto" font-size="20" letter-spacing="0em"><tspan x="82" y="1139.34">https://globo.com</tspan></text>
<path d="M50 1203C50.4295 1203.57 50.9774 1204.05 51.6066 1204.39C52.2357 1204.74 52.9315 1204.94 53.6467 1204.99C54.3618 1205.04 55.0796 1204.94 55.7513 1204.69C56.4231 1204.44 57.0331 1204.05 57.54 1203.54L60.54 1200.54C61.4508 1199.6 61.9548 1198.33 61.9434 1197.02C61.932 1195.71 61.4061 1194.46 60.4791 1193.53C59.5521 1192.6 58.298 1192.08 56.987 1192.07C55.676 1192.06 54.413 1192.56 53.47 1193.47L51.75 1195.18" stroke="white" stroke-width="2" stroke-linecap="round" stroke-linejoin="round"/>
<path d="M54 1201C53.5706 1200.43 53.0227 1199.95 52.3935 1199.61C51.7643 1199.26 51.0685 1199.06 50.3534 1199.01C49.6382 1198.96 48.9204 1199.06 48.2487 1199.31C47.5769 1199.56 46.9669 1199.95 46.46 1200.46L43.46 1203.46C42.5492 1204.4 42.0453 1205.67 42.0566 1206.98C42.068 1208.29 42.5939 1209.54 43.5209 1210.47C44.448 1211.4 45.702 1211.92 47.013 1211.93C48.324 1211.94 49.587 1211.44 50.53 1210.53L52.24 1208.82" stroke="white" stroke-width="2" stroke-linecap="round" stroke-linejoin="round"/>
<rect x="29" y="1175" width="325" height="54" rx="7" fill="white" fill-opacity="0.15"/>
<text fill="white" xml:space="preserve" style="white-space: pre" font-family="Roboto" font-size="20" letter-spacing="0em"><tspan x="82" y="1210.34">https://youtube.com</tspan></text>
<path d="M32.75 928H55.25" stroke="white" stroke-width="2.5" stroke-linecap="round" stroke-linejoin="round"/>
<path d="M32.75 920.5H55.25" stroke="white" stroke-width="2.5" stroke-linecap="round" stroke-linejoin="round"/>
<path d="M32.75 935.5H55.25" stroke="white" stroke-width="2.5" stroke-linecap="round" stroke-linejoin="round"/>
<text fill="white" xml:space="preserve" style="white-space: pre" font-family="Roboto" font-size="33" font-weight="bold" letter-spacing="0em"><tspan x="29" y="1007.78">Meus links</tspan></text>
<rect x="451" y="874" width="375" height="812" rx="8" fill="#132742"/>
<path d="M497 1061C497.429 1061.57 497.977 1062.05 498.607 1062.39C499.236 1062.74 499.932 1062.94 500.647 1062.99C501.362 1063.04 502.08 1062.94 502.751 1062.69C503.423 1062.44 504.033 1062.05 504.54 1061.54L507.54 1058.54C508.451 1057.6 508.955 1056.33 508.943 1055.02C508.932 1053.71 508.406 1052.46 507.479 1051.53C506.552 1050.6 505.298 1050.08 503.987 1050.07C502.676 1050.06 501.413 1050.56 500.47 1051.47L498.75 1053.18" stroke="white" stroke-width="2" stroke-linecap="round" stroke-linejoin="round"/>
<path d="M501 1059C500.571 1058.43 500.023 1057.95 499.393 1057.61C498.764 1057.26 498.068 1057.06 497.353 1057.01C496.638 1056.96 495.92 1057.06 495.249 1057.31C494.577 1057.56 493.967 1057.95 493.46 1058.46L490.46 1061.46C489.549 1062.4 489.045 1063.67 489.057 1064.98C489.068 1066.29 489.594 1067.54 490.521 1068.47C491.448 1069.4 492.702 1069.92 494.013 1069.93C495.324 1069.94 496.587 1069.44 497.53 1068.53L499.24 1066.82" stroke="white" stroke-width="2" stroke-linecap="round" stroke-linejoin="round"/>
<rect x="476" y="1033" width="325" height="54" rx="7" fill="white" fill-opacity="0.15"/>
<text fill="white" xml:space="preserve" style="white-space: pre" font-family="Roboto" font-size="20" letter-spacing="0em"><tspan x="529" y="1068.34">https://sujeitoprogramador.c</tspan></text>
<path d="M497 1132C497.429 1132.57 497.977 1133.05 498.607 1133.39C499.236 1133.74 499.932 1133.94 500.647 1133.99C501.362 1134.04 502.08 1133.94 502.751 1133.69C503.423 1133.44 504.033 1133.05 504.54 1132.54L507.54 1129.54C508.451 1128.6 508.955 1127.33 508.943 1126.02C508.932 1124.71 508.406 1123.46 507.479 1122.53C506.552 1121.6 505.298 1121.08 503.987 1121.07C502.676 1121.06 501.413 1121.56 500.47 1122.47L498.75 1124.18" stroke="white" stroke-width="2" stroke-linecap="round" stroke-linejoin="round"/>
<path d="M501 1130C500.571 1129.43 500.023 1128.95 499.393 1128.61C498.764 1128.26 498.068 1128.06 497.353 1128.01C496.638 1127.96 495.92 1128.06 495.249 1128.31C494.577 1128.56 493.967 1128.95 493.46 1129.46L490.46 1132.46C489.549 1133.4 489.045 1134.67 489.057 1135.98C489.068 1137.29 489.594 1138.54 490.521 1139.47C491.448 1140.4 492.702 1140.92 494.013 1140.93C495.324 1140.94 496.587 1140.44 497.53 1139.53L499.24 1137.82" stroke="white" stroke-width="2" stroke-linecap="round" stroke-linejoin="round"/>
<rect x="476" y="1104" width="325" height="54" rx="7" fill="white" fill-opacity="0.15"/>
<text fill="white" xml:space="preserve" style="white-space: pre" font-family="Roboto" font-size="20" letter-spacing="0em"><tspan x="529" y="1139.34">https://globo.com</tspan></text>
<path d="M497 1203C497.429 1203.57 497.977 1204.05 498.607 1204.39C499.236 1204.74 499.932 1204.94 500.647 1204.99C501.362 1205.04 502.08 1204.94 502.751 1204.69C503.423 1204.44 504.033 1204.05 504.54 1203.54L507.54 1200.54C508.451 1199.6 508.955 1198.33 508.943 1197.02C508.932 1195.71 508.406 1194.46 507.479 1193.53C506.552 1192.6 505.298 1192.08 503.987 1192.07C502.676 1192.06 501.413 1192.56 500.47 1193.47L498.75 1195.18" stroke="white" stroke-width="2" stroke-linecap="round" stroke-linejoin="round"/>
<path d="M501 1201C500.571 1200.43 500.023 1199.95 499.393 1199.61C498.764 1199.26 498.068 1199.06 497.353 1199.01C496.638 1198.96 495.92 1199.06 495.249 1199.31C494.577 1199.56 493.967 1199.95 493.46 1200.46L490.46 1203.46C489.549 1204.4 489.045 1205.67 489.057 1206.98C489.068 1208.29 489.594 1209.54 490.521 1210.47C491.448 1211.4 492.702 1211.92 494.013 1211.93C495.324 1211.94 496.587 1211.44 497.53 1210.53L499.24 1208.82" stroke="white" stroke-width="2" stroke-linecap="round" stroke-linejoin="round"/>
<rect x="476" y="1175" width="325" height="54" rx="7" fill="white" fill-opacity="0.15"/>
<text fill="white" xml:space="preserve" style="white-space: pre" font-family="Roboto" font-size="20" letter-spacing="0em"><tspan x="529" y="1210.34">https://youtube.com</tspan></text>
<path d="M479.75 928H502.25" stroke="white" stroke-width="2.5" stroke-linecap="round" stroke-linejoin="round"/>
<path d="M479.75 920.5H502.25" stroke="white" stroke-width="2.5" stroke-linecap="round" stroke-linejoin="round"/>
<path d="M479.75 935.5H502.25" stroke="white" stroke-width="2.5" stroke-linecap="round" stroke-linejoin="round"/>
<text fill="white" xml:space="preserve" style="white-space: pre" font-family="Roboto" font-size="33" font-weight="bold" letter-spacing="0em"><tspan x="476" y="1007.78">Meus links</tspan></text>
<rect x="451" y="1280" width="375" height="406" rx="8" fill="white"/>
<text fill="#1CCBAE" xml:space="preserve" style="white-space: pre" font-family="Roboto" font-size="30" font-weight="bold" letter-spacing="0em"><tspan x="476" y="1452.75">Link encurtado:</tspan></text>
<text fill="#A7A7A7" xml:space="preserve" style="white-space: pre" font-family="Roboto" font-size="20" letter-spacing="0em"><tspan x="476" y="1489.34">https://sujeitoprogramador.com/</tspan></text>
<rect x="476" y="1523" width="325" height="49" rx="7" fill="#172742"/>
<text fill="white" xml:space="preserve" style="white-space: pre" font-family="Roboto" font-size="18" letter-spacing="0em"><tspan x="491" y="1553.65">https://bit.ly/3mJxeUq</tspan></text>
<path d="M780 1544H771C769.895 1544 769 1544.9 769 1546V1555C769 1556.1 769.895 1557 771 1557H780C781.105 1557 782 1556.1 782 1555V1546C782 1544.9 781.105 1544 780 1544Z" stroke="white" stroke-width="2" stroke-linecap="round" stroke-linejoin="round"/>
<path d="M765 1550H764C763.47 1550 762.961 1549.79 762.586 1549.41C762.211 1549.04 762 1548.53 762 1548V1539C762 1538.47 762.211 1537.96 762.586 1537.59C762.961 1537.21 763.47 1537 764 1537H773C773.53 1537 774.039 1537.21 774.414 1537.59C774.789 1537.96 775 1538.47 775 1539V1540" stroke="white" stroke-width="2" stroke-linecap="round" stroke-linejoin="round"/>
<path d="M500.75 1326.25L484.25 1342.75" stroke="#212743" stroke-width="2" stroke-linecap="round" stroke-linejoin="round"/>
<path d="M484.25 1326.25L500.75 1342.75" stroke="#212743" stroke-width="2" stroke-linecap="round" stroke-linejoin="round"/>
<path d="M776 1333V1343C776 1343.66 776.263 1344.3 776.732 1344.77C777.201 1345.24 777.837 1345.5 778.5 1345.5H793.5C794.163 1345.5 794.799 1345.24 795.268 1344.77C795.737 1344.3 796 1343.66 796 1343V1333" stroke="black" stroke-width="2" stroke-linecap="round" stroke-linejoin="round"/>
<path d="M791 1325.5L786 1320.5L781 1325.5" stroke="black" stroke-width="2" stroke-linecap="round" stroke-linejoin="round"/>
<path d="M786 1320.5V1336.75" stroke="black" stroke-width="2" stroke-linecap="round" stroke-linejoin="round"/>
<rect x="451" y="874" width="375" height="812" rx="8" fill="#132742"/>
<path d="M497 1061C497.429 1061.57 497.977 1062.05 498.607 1062.39C499.236 1062.74 499.932 1062.94 500.647 1062.99C501.362 1063.04 502.08 1062.94 502.751 1062.69C503.423 1062.44 504.033 1062.05 504.54 1061.54L507.54 1058.54C508.451 1057.6 508.955 1056.33 508.943 1055.02C508.932 1053.71 508.406 1052.46 507.479 1051.53C506.552 1050.6 505.298 1050.08 503.987 1050.07C502.676 1050.06 501.413 1050.56 500.47 1051.47L498.75 1053.18" stroke="white" stroke-width="2" stroke-linecap="round" stroke-linejoin="round"/>
<path d="M501 1059C500.571 1058.43 500.023 1057.95 499.393 1057.61C498.764 1057.26 498.068 1057.06 497.353 1057.01C496.638 1056.96 495.92 1057.06 495.249 1057.31C494.577 1057.56 493.967 1057.95 493.46 1058.46L490.46 1061.46C489.549 1062.4 489.045 1063.67 489.057 1064.98C489.068 1066.29 489.594 1067.54 490.521 1068.47C491.448 1069.4 492.702 1069.92 494.013 1069.93C495.324 1069.94 496.587 1069.44 497.53 1068.53L499.24 1066.82" stroke="white" stroke-width="2" stroke-linecap="round" stroke-linejoin="round"/>
<rect x="476" y="1033" width="325" height="54" rx="7" fill="white" fill-opacity="0.15"/>
<text fill="white" xml:space="preserve" style="white-space: pre" font-family="Roboto" font-size="20" letter-spacing="0em"><tspan x="529" y="1068.34">https://sujeitoprogramador.c</tspan></text>
<path d="M497 1132C497.429 1132.57 497.977 1133.05 498.607 1133.39C499.236 1133.74 499.932 1133.94 500.647 1133.99C501.362 1134.04 502.08 1133.94 502.751 1133.69C503.423 1133.44 504.033 1133.05 504.54 1132.54L507.54 1129.54C508.451 1128.6 508.955 1127.33 508.943 1126.02C508.932 1124.71 508.406 1123.46 507.479 1122.53C506.552 1121.6 505.298 1121.08 503.987 1121.07C502.676 1121.06 501.413 1121.56 500.47 1122.47L498.75 1124.18" stroke="white" stroke-width="2" stroke-linecap="round" stroke-linejoin="round"/>
<path d="M501 1130C500.571 1129.43 500.023 1128.95 499.393 1128.61C498.764 1128.26 498.068 1128.06 497.353 1128.01C496.638 1127.96 495.92 1128.06 495.249 1128.31C494.577 1128.56 493.967 1128.95 493.46 1129.46L490.46 1132.46C489.549 1133.4 489.045 1134.67 489.057 1135.98C489.068 1137.29 489.594 1138.54 490.521 1139.47C491.448 1140.4 492.702 1140.92 494.013 1140.93C495.324 1140.94 496.587 1140.44 497.53 1139.53L499.24 1137.82" stroke="white" stroke-width="2" stroke-linecap="round" stroke-linejoin="round"/>
<rect x="476" y="1104" width="325" height="54" rx="7" fill="white" fill-opacity="0.15"/>
<text fill="white" xml:space="preserve" style="white-space: pre" font-family="Roboto" font-size="20" letter-spacing="0em"><tspan x="529" y="1139.34">https://globo.com</tspan></text>
<path d="M497 1203C497.429 1203.57 497.977 1204.05 498.607 1204.39C499.236 1204.74 499.932 1204.94 500.647 1204.99C501.362 1205.04 502.08 1204.94 502.751 1204.69C503.423 1204.44 504.033 1204.05 504.54 1203.54L507.54 1200.54C508.451 1199.6 508.955 1198.33 508.943 1197.02C508.932 1195.71 508.406 1194.46 507.479 1193.53C506.552 1192.6 505.298 1192.08 503.987 1192.07C502.676 1192.06 501.413 1192.56 500.47 1193.47L498.75 1195.18" stroke="white" stroke-width="2" stroke-linecap="round" stroke-linejoin="round"/>
<path d="M501 1201C500.571 1200.43 500.023 1199.95 499.393 1199.61C498.764 1199.26 498.068 1199.06 497.353 1199.01C496.638 1198.96 495.92 1199.06 495.249 1199.31C494.577 1199.56 493.967 1199.95 493.46 1200.46L490.46 1203.46C489.549 1204.4 489.045 1205.67 489.057 1206.98C489.068 1208.29 489.594 1209.54 490.521 1210.47C491.448 1211.4 492.702 1211.92 494.013 1211.93C495.324 1211.94 496.587 1211.44 497.53 1210.53L499.24 1208.82" stroke="white" stroke-width="2" stroke-linecap="round" stroke-linejoin="round"/>
<rect x="476" y="1175" width="325" height="54" rx="7" fill="white" fill-opacity="0.15"/>
<text fill="white" xml:space="preserve" style="white-space: pre" font-family="Roboto" font-size="20" letter-spacing="0em"><tspan x="529" y="1210.34">https://youtube.com</tspan></text>
<path d="M479.75 928H502.25" stroke="white" stroke-width="2.5" stroke-linecap="round" stroke-linejoin="round"/>
<path d="M479.75 920.5H502.25" stroke="white" stroke-width="2.5" stroke-linecap="round" stroke-linejoin="round"/>
<path d="M479.75 935.5H502.25" stroke="white" stroke-width="2.5" stroke-linecap="round" stroke-linejoin="round"/>
<text fill="white" xml:space="preserve" style="white-space: pre" font-family="Roboto" font-size="33" font-weight="bold" letter-spacing="0em"><tspan x="476" y="1007.78">Meus links</tspan></text>
<rect x="451" y="1280" width="375" height="406" rx="8" fill="white"/>
<text fill="#1CCBAE" xml:space="preserve" style="white-space: pre" font-family="Roboto" font-size="30" font-weight="bold" letter-spacing="0em"><tspan x="476" y="1452.75">Link encurtado:</tspan></text>
<text fill="#A7A7A7" xml:space="preserve" style="white-space: pre" font-family="Roboto" font-size="20" letter-spacing="0em"><tspan x="476" y="1489.34">https://sujeitoprogramador.com/</tspan></text>
<rect x="476" y="1523" width="325" height="49" rx="7" fill="#172742"/>
<text fill="white" xml:space="preserve" style="white-space: pre" font-family="Roboto" font-size="18" letter-spacing="0em"><tspan x="491" y="1553.65">https://bit.ly/3mJxeUq</tspan></text>
<path d="M780 1544H771C769.895 1544 769 1544.9 769 1546V1555C769 1556.1 769.895 1557 771 1557H780C781.105 1557 782 1556.1 782 1555V1546C782 1544.9 781.105 1544 780 1544Z" stroke="white" stroke-width="2" stroke-linecap="round" stroke-linejoin="round"/>
<path d="M765 1550H764C763.47 1550 762.961 1549.79 762.586 1549.41C762.211 1549.04 762 1548.53 762 1548V1539C762 1538.47 762.211 1537.96 762.586 1537.59C762.961 1537.21 763.47 1537 764 1537H773C773.53 1537 774.039 1537.21 774.414 1537.59C774.789 1537.96 775 1538.47 775 1539V1540" stroke="white" stroke-width="2" stroke-linecap="round" stroke-linejoin="round"/>
<path d="M500.75 1326.25L484.25 1342.75" stroke="#212743" stroke-width="2" stroke-linecap="round" stroke-linejoin="round"/>
<path d="M484.25 1326.25L500.75 1342.75" stroke="#212743" stroke-width="2" stroke-linecap="round" stroke-linejoin="round"/>
<path d="M776 1333V1343C776 1343.66 776.263 1344.3 776.732 1344.77C777.201 1345.24 777.837 1345.5 778.5 1345.5H793.5C794.163 1345.5 794.799 1345.24 795.268 1344.77C795.737 1344.3 796 1343.66 796 1343V1333" stroke="black" stroke-width="2" stroke-linecap="round" stroke-linejoin="round"/>
<path d="M791 1325.5L786 1320.5L781 1325.5" stroke="black" stroke-width="2" stroke-linecap="round" stroke-linejoin="round"/>
<path d="M786 1320.5V1336.75" stroke="black" stroke-width="2" stroke-linecap="round" stroke-linejoin="round"/>
<rect x="451" y="874" width="375" height="812" rx="8" fill="#132742"/>
<path d="M497 1061C497.429 1061.57 497.977 1062.05 498.607 1062.39C499.236 1062.74 499.932 1062.94 500.647 1062.99C501.362 1063.04 502.08 1062.94 502.751 1062.69C503.423 1062.44 504.033 1062.05 504.54 1061.54L507.54 1058.54C508.451 1057.6 508.955 1056.33 508.943 1055.02C508.932 1053.71 508.406 1052.46 507.479 1051.53C506.552 1050.6 505.298 1050.08 503.987 1050.07C502.676 1050.06 501.413 1050.56 500.47 1051.47L498.75 1053.18" stroke="white" stroke-width="2" stroke-linecap="round" stroke-linejoin="round"/>
<path d="M501 1059C500.571 1058.43 500.023 1057.95 499.393 1057.61C498.764 1057.26 498.068 1057.06 497.353 1057.01C496.638 1056.96 495.92 1057.06 495.249 1057.31C494.577 1057.56 493.967 1057.95 493.46 1058.46L490.46 1061.46C489.549 1062.4 489.045 1063.67 489.057 1064.98C489.068 1066.29 489.594 1067.54 490.521 1068.47C491.448 1069.4 492.702 1069.92 494.013 1069.93C495.324 1069.94 496.587 1069.44 497.53 1068.53L499.24 1066.82" stroke="white" stroke-width="2" stroke-linecap="round" stroke-linejoin="round"/>
<rect x="476" y="1033" width="325" height="54" rx="7" fill="white" fill-opacity="0.15"/>
<text fill="white" xml:space="preserve" style="white-space: pre" font-family="Roboto" font-size="20" letter-spacing="0em"><tspan x="529" y="1068.34">https://sujeitoprogramador.c</tspan></text>
<path d="M497 1132C497.429 1132.57 497.977 1133.05 498.607 1133.39C499.236 1133.74 499.932 1133.94 500.647 1133.99C501.362 1134.04 502.08 1133.94 502.751 1133.69C503.423 1133.44 504.033 1133.05 504.54 1132.54L507.54 1129.54C508.451 1128.6 508.955 1127.33 508.943 1126.02C508.932 1124.71 508.406 1123.46 507.479 1122.53C506.552 1121.6 505.298 1121.08 503.987 1121.07C502.676 1121.06 501.413 1121.56 500.47 1122.47L498.75 1124.18" stroke="white" stroke-width="2" stroke-linecap="round" stroke-linejoin="round"/>
<path d="M501 1130C500.571 1129.43 500.023 1128.95 499.393 1128.61C498.764 1128.26 498.068 1128.06 497.353 1128.01C496.638 1127.96 495.92 1128.06 495.249 1128.31C494.577 1128.56 493.967 1128.95 493.46 1129.46L490.46 1132.46C489.549 1133.4 489.045 1134.67 489.057 1135.98C489.068 1137.29 489.594 1138.54 490.521 1139.47C491.448 1140.4 492.702 1140.92 494.013 1140.93C495.324 1140.94 496.587 1140.44 497.53 1139.53L499.24 1137.82" stroke="white" stroke-width="2" stroke-linecap="round" stroke-linejoin="round"/>
<rect x="476" y="1104" width="325" height="54" rx="7" fill="white" fill-opacity="0.15"/>
<text fill="white" xml:space="preserve" style="white-space: pre" font-family="Roboto" font-size="20" letter-spacing="0em"><tspan x="529" y="1139.34">https://globo.com</tspan></text>
<path d="M497 1203C497.429 1203.57 497.977 1204.05 498.607 1204.39C499.236 1204.74 499.932 1204.94 500.647 1204.99C501.362 1205.04 502.08 1204.94 502.751 1204.69C503.423 1204.44 504.033 1204.05 504.54 1203.54L507.54 1200.54C508.451 1199.6 508.955 1198.33 508.943 1197.02C508.932 1195.71 508.406 1194.46 507.479 1193.53C506.552 1192.6 505.298 1192.08 503.987 1192.07C502.676 1192.06 501.413 1192.56 500.47 1193.47L498.75 1195.18" stroke="white" stroke-width="2" stroke-linecap="round" stroke-linejoin="round"/>
<path d="M501 1201C500.571 1200.43 500.023 1199.95 499.393 1199.61C498.764 1199.26 498.068 1199.06 497.353 1199.01C496.638 1198.96 495.92 1199.06 495.249 1199.31C494.577 1199.56 493.967 1199.95 493.46 1200.46L490.46 1203.46C489.549 1204.4 489.045 1205.67 489.057 1206.98C489.068 1208.29 489.594 1209.54 490.521 1210.47C491.448 1211.4 492.702 1211.92 494.013 1211.93C495.324 1211.94 496.587 1211.44 497.53 1210.53L499.24 1208.82" stroke="white" stroke-width="2" stroke-linecap="round" stroke-linejoin="round"/>
<rect x="476" y="1175" width="325" height="54" rx="7" fill="white" fill-opacity="0.15"/>
<text fill="white" xml:space="preserve" style="white-space: pre" font-family="Roboto" font-size="20" letter-spacing="0em"><tspan x="529" y="1210.34">https://youtube.com</tspan></text>
<path d="M479.75 928H502.25" stroke="white" stroke-width="2.5" stroke-linecap="round" stroke-linejoin="round"/>
<path d="M479.75 920.5H502.25" stroke="white" stroke-width="2.5" stroke-linecap="round" stroke-linejoin="round"/>
<path d="M479.75 935.5H502.25" stroke="white" stroke-width="2.5" stroke-linecap="round" stroke-linejoin="round"/>
<text fill="white" xml:space="preserve" style="white-space: pre" font-family="Roboto" font-size="33" font-weight="bold" letter-spacing="0em"><tspan x="476" y="1007.78">Meus links</tspan></text>
<rect x="451" y="1280" width="375" height="406" rx="8" fill="white"/>
<text fill="#1CCBAE" xml:space="preserve" style="white-space: pre" font-family="Roboto" font-size="30" font-weight="bold" letter-spacing="0em"><tspan x="476" y="1452.75">Link encurtado:</tspan></text>
<text fill="#A7A7A7" xml:space="preserve" style="white-space: pre" font-family="Roboto" font-size="20" letter-spacing="0em"><tspan x="476" y="1489.34">https://sujeitoprogramador.com/</tspan></text>
<rect x="476" y="1523" width="325" height="49" rx="7" fill="#172742"/>
<text fill="white" xml:space="preserve" style="white-space: pre" font-family="Roboto" font-size="18" letter-spacing="0em"><tspan x="491" y="1553.65">https://bit.ly/3mJxeUq</tspan></text>
<path d="M780 1544H771C769.895 1544 769 1544.9 769 1546V1555C769 1556.1 769.895 1557 771 1557H780C781.105 1557 782 1556.1 782 1555V1546C782 1544.9 781.105 1544 780 1544Z" stroke="white" stroke-width="2" stroke-linecap="round" stroke-linejoin="round"/>
<path d="M765 1550H764C763.47 1550 762.961 1549.79 762.586 1549.41C762.211 1549.04 762 1548.53 762 1548V1539C762 1538.47 762.211 1537.96 762.586 1537.59C762.961 1537.21 763.47 1537 764 1537H773C773.53 1537 774.039 1537.21 774.414 1537.59C774.789 1537.96 775 1538.47 775 1539V1540" stroke="white" stroke-width="2" stroke-linecap="round" stroke-linejoin="round"/>
<path d="M500.75 1326.25L484.25 1342.75" stroke="#212743" stroke-width="2" stroke-linecap="round" stroke-linejoin="round"/>
<path d="M484.25 1326.25L500.75 1342.75" stroke="#212743" stroke-width="2" stroke-linecap="round" stroke-linejoin="round"/>
<path d="M776 1333V1343C776 1343.66 776.263 1344.3 776.732 1344.77C777.201 1345.24 777.837 1345.5 778.5 1345.5H793.5C794.163 1345.5 794.799 1345.24 795.268 1344.77C795.737 1344.3 796 1343.66 796 1343V1333" stroke="black" stroke-width="2" stroke-linecap="round" stroke-linejoin="round"/>
<path d="M791 1325.5L786 1320.5L781 1325.5" stroke="black" stroke-width="2" stroke-linecap="round" stroke-linejoin="round"/>
<path d="M786 1320.5V1336.75" stroke="black" stroke-width="2" stroke-linecap="round" stroke-linejoin="round"/>
<rect x="451" width="375" height="812" rx="8" fill="url(#paint0_linear)"/>
<rect x="476" y="637" width="325" height="54" rx="7" fill="white"/>
<text fill="black" xml:space="preserve" style="white-space: pre" font-family="Roboto" font-size="18" letter-spacing="0em"><tspan x="600" y="670.652">Gerar link</tspan></text>
<path d="M497 599C497.429 599.574 497.977 600.049 498.607 600.393C499.236 600.737 499.932 600.941 500.647 600.992C501.362 601.044 502.08 600.94 502.751 600.69C503.423 600.439 504.033 600.047 504.54 599.54L507.54 596.54C508.451 595.597 508.955 594.334 508.943 593.023C508.932 591.712 508.406 590.458 507.479 589.531C506.552 588.604 505.298 588.078 503.987 588.067C502.676 588.055 501.413 588.559 500.47 589.47L498.75 591.18" stroke="white" stroke-width="2" stroke-linecap="round" stroke-linejoin="round"/>
<path d="M501 597C500.571 596.426 500.023 595.951 499.393 595.607C498.764 595.263 498.068 595.059 497.353 595.008C496.638 594.956 495.92 595.06 495.249 595.31C494.577 595.561 493.967 595.953 493.46 596.46L490.46 599.46C489.549 600.403 489.045 601.666 489.057 602.977C489.068 604.288 489.594 605.542 490.521 606.469C491.448 607.396 492.702 607.922 494.013 607.933C495.324 607.945 496.587 607.441 497.53 606.53L499.24 604.82" stroke="white" stroke-width="2" stroke-linecap="round" stroke-linejoin="round"/>
<rect x="476.5" y="571.5" width="324" height="53" rx="6.5" fill="white" fill-opacity="0.15" stroke="#14384D"/>
<text fill="white" xml:space="preserve" style="white-space: pre" font-family="Roboto" font-size="18" letter-spacing="0em"><tspan x="529" y="604.652">Cole seu link aqui...</tspan></text>
<text fill="white" xml:space="preserve" style="white-space: pre" font-family="Roboto" font-size="33" font-weight="bold" letter-spacing="0em"><tspan x="555" y="504.779">HenjuLink</tspan></text>
<text fill="white" xml:space="preserve" style="white-space: pre" font-family="Roboto" font-size="22" letter-spacing="0em"><tspan x="508" y="541.52">Cole seu link para encurtar</tspan></text>
<path d="M574.929 336.292L624.614 324.371L610.095 373.361L574.929 336.292Z" fill="white"/>
<rect x="549" y="194.807" width="169" height="155" rx="22" transform="rotate(-3.66624 549 194.807)" fill="white"/>
<path d="M629.533 271.12C631.412 273.632 633.809 275.71 636.561 277.214C639.314 278.718 642.358 279.612 645.487 279.836C648.616 280.06 651.756 279.609 654.695 278.513C657.634 277.416 660.303 275.701 662.52 273.482L675.645 260.357C679.63 256.232 681.835 250.706 681.785 244.97C681.735 239.235 679.435 233.748 675.379 229.692C671.323 225.637 665.836 223.336 660.101 223.286C654.365 223.236 648.84 225.441 644.714 229.426L637.189 236.907" stroke="#132742" stroke-width="5" stroke-linecap="round" stroke-linejoin="round"/>
<path d="M647.033 262.37C645.154 259.858 642.757 257.78 640.004 256.276C637.251 254.772 634.207 253.877 631.079 253.653C627.95 253.429 624.81 253.881 621.871 254.977C618.932 256.073 616.263 257.789 614.045 260.007L600.92 273.132C596.936 277.258 594.731 282.784 594.78 288.519C594.83 294.255 597.131 299.741 601.187 303.797C605.243 307.853 610.729 310.153 616.465 310.203C622.2 310.253 627.726 308.048 631.851 304.064L639.333 296.582" stroke="#132742" stroke-width="5" stroke-linecap="round" stroke-linejoin="round"/>
<path d="M479.75 54H502.25" stroke="white" stroke-width="2.5" stroke-linecap="round" stroke-linejoin="round"/>
<path d="M479.75 46.5H502.25" stroke="white" stroke-width="2.5" stroke-linecap="round" stroke-linejoin="round"/>
<path d="M479.75 61.5H502.25" stroke="white" stroke-width="2.5" stroke-linecap="round" stroke-linejoin="round"/>
<g clip-path="url(#clip3)">
<rect x="898" width="375" height="812" rx="8" fill="url(#paint1_linear)"/>
<rect x="923" y="637" width="325" height="54" rx="7" fill="white"/>
<text fill="black" xml:space="preserve" style="white-space: pre" font-family="Roboto" font-size="18" letter-spacing="0em"><tspan x="1047" y="670.652">Gerar link</tspan></text>
<path d="M944 599C944.429 599.574 944.977 600.049 945.607 600.393C946.236 600.737 946.932 600.941 947.647 600.992C948.362 601.044 949.08 600.94 949.751 600.69C950.423 600.439 951.033 600.047 951.54 599.54L954.54 596.54C955.451 595.597 955.955 594.334 955.943 593.023C955.932 591.712 955.406 590.458 954.479 589.531C953.552 588.604 952.298 588.078 950.987 588.067C949.676 588.055 948.413 588.559 947.47 589.47L945.75 591.18" stroke="white" stroke-width="2" stroke-linecap="round" stroke-linejoin="round"/>
<path d="M948 597C947.571 596.426 947.023 595.951 946.393 595.607C945.764 595.263 945.068 595.059 944.353 595.008C943.638 594.956 942.92 595.06 942.249 595.31C941.577 595.561 940.967 595.953 940.46 596.46L937.46 599.46C936.549 600.403 936.045 601.666 936.057 602.977C936.068 604.288 936.594 605.542 937.521 606.469C938.448 607.396 939.702 607.922 941.013 607.933C942.324 607.945 943.587 607.441 944.53 606.53L946.24 604.82" stroke="white" stroke-width="2" stroke-linecap="round" stroke-linejoin="round"/>
<rect x="923.5" y="571.5" width="324" height="53" rx="6.5" fill="white" fill-opacity="0.15" stroke="#14384D"/>
<text fill="white" xml:space="preserve" style="white-space: pre" font-family="Roboto" font-size="18" letter-spacing="0em"><tspan x="976" y="604.652">Cole seu link aqui...</tspan></text>
<text fill="white" xml:space="preserve" style="white-space: pre" font-family="Roboto" font-size="33" font-weight="bold" letter-spacing="0em"><tspan x="1002" y="504.779">SujeitoLink</tspan></text>
<text fill="white" xml:space="preserve" style="white-space: pre" font-family="Roboto" font-size="22" letter-spacing="0em"><tspan x="955" y="541.52">Cole seu link para encurtar</tspan></text>
<path d="M1021.93 336.292L1071.61 324.371L1057.1 373.361L1021.93 336.292Z" fill="white"/>
<rect x="996" y="194.807" width="169" height="155" rx="22" transform="rotate(-3.66624 996 194.807)" fill="white"/>
<path d="M1076.53 271.12C1078.41 273.632 1080.81 275.71 1083.56 277.214C1086.31 278.718 1089.36 279.612 1092.49 279.836C1095.62 280.06 1098.76 279.609 1101.69 278.513C1104.63 277.416 1107.3 275.701 1109.52 273.482L1122.65 260.357C1126.63 256.232 1128.83 250.706 1128.78 244.97C1128.74 239.235 1126.43 233.748 1122.38 229.692C1118.32 225.637 1112.84 223.336 1107.1 223.286C1101.37 223.236 1095.84 225.441 1091.71 229.426L1084.19 236.907" stroke="#132742" stroke-width="5" stroke-linecap="round" stroke-linejoin="round"/>
<path d="M1094.03 262.37C1092.15 259.858 1089.76 257.78 1087 256.276C1084.25 254.772 1081.21 253.877 1078.08 253.653C1074.95 253.429 1071.81 253.881 1068.87 254.977C1065.93 256.073 1063.26 257.789 1061.05 260.007L1047.92 273.132C1043.94 277.258 1041.73 282.784 1041.78 288.519C1041.83 294.255 1044.13 299.741 1048.19 303.797C1052.24 307.853 1057.73 310.153 1063.46 310.203C1069.2 310.253 1074.73 308.048 1078.85 304.064L1086.33 296.582" stroke="#132742" stroke-width="5" stroke-linecap="round" stroke-linejoin="round"/>
<path d="M926.75 54H949.25" stroke="white" stroke-width="2.5" stroke-linecap="round" stroke-linejoin="round"/>
<path d="M926.75 46.5H949.25" stroke="white" stroke-width="2.5" stroke-linecap="round" stroke-linejoin="round"/>
<path d="M926.75 61.5H949.25" stroke="white" stroke-width="2.5" stroke-linecap="round" stroke-linejoin="round"/>
<g filter="url(#filter2_d)">
<rect x="898" y="407" width="375" height="406" rx="8" fill="white"/>
<text fill="#1CCBAE" xml:space="preserve" style="white-space: pre" font-family="Roboto" font-size="30" font-weight="bold" letter-spacing="0em"><tspan x="923" y="579.754">Link encurtado:</tspan></text>
<text fill="#A7A7A7" xml:space="preserve" style="white-space: pre" font-family="Roboto" font-size="20" letter-spacing="0em"><tspan x="923" y="616.336">https://sujeitoprogramador.com/</tspan></text>
<rect x="923" y="650" width="325" height="49" rx="7" fill="#172742"/>
<text fill="white" xml:space="preserve" style="white-space: pre" font-family="Roboto" font-size="18" letter-spacing="0em"><tspan x="938" y="680.652">https://bit.ly/3mJxeUq</tspan></text>
<path d="M1227 671H1218C1216.9 671 1216 671.895 1216 673V682C1216 683.105 1216.9 684 1218 684H1227C1228.1 684 1229 683.105 1229 682V673C1229 671.895 1228.1 671 1227 671Z" stroke="white" stroke-width="2" stroke-linecap="round" stroke-linejoin="round"/>
<path d="M1212 677H1211C1210.47 677 1209.96 676.789 1209.59 676.414C1209.21 676.039 1209 675.53 1209 675V666C1209 665.47 1209.21 664.961 1209.59 664.586C1209.96 664.211 1210.47 664 1211 664H1220C1220.53 664 1221.04 664.211 1221.41 664.586C1221.79 664.961 1222 665.47 1222 666V667" stroke="white" stroke-width="2" stroke-linecap="round" stroke-linejoin="round"/>
<path d="M947.75 453.25L931.25 469.75" stroke="#212743" stroke-width="2" stroke-linecap="round" stroke-linejoin="round"/>
<path d="M931.25 453.25L947.75 469.75" stroke="#212743" stroke-width="2" stroke-linecap="round" stroke-linejoin="round"/>
<path d="M1223 460V470C1223 470.663 1223.26 471.299 1223.73 471.768C1224.2 472.237 1224.84 472.5 1225.5 472.5H1240.5C1241.16 472.5 1241.8 472.237 1242.27 471.768C1242.74 471.299 1243 470.663 1243 470V460" stroke="black" stroke-width="2" stroke-linecap="round" stroke-linejoin="round"/>
<path d="M1238 452.5L1233 447.5L1228 452.5" stroke="black" stroke-width="2" stroke-linecap="round" stroke-linejoin="round"/>
<path d="M1233 447.5V463.75" stroke="black" stroke-width="2" stroke-linecap="round" stroke-linejoin="round"/>
</g>
</g>
</g>
<defs>
<filter id="filter0_d" x="0" y="0" width="1277" height="1694" filterUnits="userSpaceOnUse" color-interpolation-filters="sRGB">
<feFlood flood-opacity="0" result="BackgroundImageFix"/>
<feColorMatrix in="SourceAlpha" type="matrix" values="0 0 0 0 0 0 0 0 0 0 0 0 0 0 0 0 0 0 127 0"/>
<feOffset dy="4"/>
<feGaussianBlur stdDeviation="2"/>
<feColorMatrix type="matrix" values="0 0 0 0 0 0 0 0 0 0 0 0 0 0 0 0 0 0 0.25 0"/>
<feBlend mode="normal" in2="BackgroundImageFix" result="effect1_dropShadow"/>
<feBlend mode="normal" in="SourceGraphic" in2="effect1_dropShadow" result="shape"/>
</filter>
<filter id="filter1_d" x="81" y="286" width="225" height="237.756" filterUnits="userSpaceOnUse" color-interpolation-filters="sRGB">
<feFlood flood-opacity="0" result="BackgroundImageFix"/>
<feColorMatrix in="SourceAlpha" type="matrix" values="0 0 0 0 0 0 0 0 0 0 0 0 0 0 0 0 0 0 127 0"/>
<feOffset dx="2" dy="4"/>
<feGaussianBlur stdDeviation="3.5"/>
<feColorMatrix type="matrix" values="0 0 0 0 0 0 0 0 0 0 0 0 0 0 0 0 0 0 0.45 0"/>
<feBlend mode="normal" in2="BackgroundImageFix" result="effect1_dropShadow"/>
<feBlend mode="normal" in="SourceGraphic" in2="effect1_dropShadow" result="shape"/>
</filter>
<filter id="filter2_d" x="894" y="407" width="383" height="415" filterUnits="userSpaceOnUse" color-interpolation-filters="sRGB">
<feFlood flood-opacity="0" result="BackgroundImageFix"/>
<feColorMatrix in="SourceAlpha" type="matrix" values="0 0 0 0 0 0 0 0 0 0 0 0 0 0 0 0 0 0 127 0"/>
<feOffset dy="5"/>
<feGaussianBlur stdDeviation="2"/>
<feColorMatrix type="matrix" values="0 0 0 0 0 0 0 0 0 0 0 0 0 0 0 0 0 0 0.75 0"/>
<feBlend mode="normal" in2="BackgroundImageFix" result="effect1_dropShadow"/>
<feBlend mode="normal" in="SourceGraphic" in2="effect1_dropShadow" result="shape"/>
</filter>
<linearGradient id="paint0_linear" x1="638.5" y1="0" x2="638.5" y2="812" gradientUnits="userSpaceOnUse">
<stop stop-color="#1DDBB9"/>
<stop offset="1" stop-color="#132742"/>
</linearGradient>
<linearGradient id="paint1_linear" x1="1085.5" y1="0" x2="1085.5" y2="812" gradientUnits="userSpaceOnUse">
<stop stop-color="#1DDBB9"/>
<stop offset="1" stop-color="#132742"/>
</linearGradient>
<clipPath id="clip0">
<rect x="898" y="874" width="375" height="812" rx="8" fill="white"/>
</clipPath>
<clipPath id="clip1">
<rect x="898" y="874" width="375" height="812" rx="8" fill="white"/>
</clipPath>
<clipPath id="clip2">
<rect x="898" y="874" width="375" height="812" rx="8" fill="white"/>
</clipPath>
<clipPath id="clip3">
<rect x="898" width="375" height="812" rx="8" fill="white"/>
</clipPath>
</defs>
</svg>
