<svg width="562" height="452" viewBox="0 0 562 452" fill="none" xmlns="http://www.w3.org/2000/svg">
<g filter="url(#filter0_d)">
<path d="M35.6385 182.954L94.3488 168.868L77.1923 226.756L35.6385 182.954Z" fill="#132742"/>
<rect x="5" y="15.7695" width="199.697" height="183.154" rx="43.491" transform="rotate(-3.66624 5 15.7695)" fill="#132742"/>
<path d="M100.161 105.944C102.381 108.912 105.213 111.368 108.466 113.145C111.719 114.922 115.316 115.979 119.013 116.244C122.71 116.509 126.42 115.975 129.893 114.68C133.366 113.384 136.52 111.357 139.14 108.736L154.649 93.2267C159.357 88.3516 161.963 81.8222 161.904 75.0449C161.845 68.2675 159.127 61.7844 154.334 56.992C149.542 52.1995 143.059 49.481 136.281 49.4221C129.504 49.3632 122.974 51.9686 118.099 56.6771L109.208 65.5172" stroke="white" stroke-width="9.88433" stroke-linecap="round" stroke-linejoin="round"/>
<path d="M120.839 95.6048C118.619 92.6367 115.787 90.1808 112.534 88.4037C109.281 86.6266 105.684 85.5698 101.987 85.3051C98.2902 85.0403 94.5795 85.5737 91.1067 86.8691C87.6339 88.1646 84.4804 90.1918 81.8599 92.8131L66.3509 108.322C61.6424 113.197 59.0371 119.727 59.0959 126.504C59.1548 133.281 61.8733 139.764 66.6658 144.557C71.4583 149.349 77.9414 152.068 84.7187 152.127C91.4961 152.186 98.0254 149.58 102.9 144.872L111.741 136.032" stroke="white" stroke-width="9.88433" stroke-linecap="round" stroke-linejoin="round"/>
</g>
<g filter="url(#filter1_d)">
<path d="M404.929 406.292L454.614 394.371L440.095 443.361L404.929 406.292Z" fill="white"/>
<rect x="379" y="264.807" width="169" height="155" rx="22" transform="rotate(-3.66624 379 264.807)" fill="white"/>
<path d="M459.533 341.12C461.412 343.632 463.809 345.71 466.561 347.214C469.314 348.718 472.358 349.612 475.487 349.836C478.616 350.06 481.756 349.609 484.695 348.513C487.634 347.416 490.303 345.701 492.52 343.482L505.645 330.357C509.63 326.232 511.835 320.706 511.785 314.97C511.735 309.235 509.435 303.748 505.379 299.692C501.323 295.637 495.836 293.336 490.101 293.286C484.365 293.236 478.84 295.441 474.714 299.426L467.189 306.907" stroke="#132742" stroke-width="5" stroke-linecap="round" stroke-linejoin="round"/>
<path d="M477.033 332.37C475.154 329.858 472.757 327.78 470.004 326.276C467.251 324.772 464.207 323.877 461.079 323.653C457.95 323.429 454.809 323.881 451.87 324.977C448.932 326.073 446.263 327.789 444.045 330.007L430.92 343.132C426.935 347.258 424.731 352.784 424.78 358.519C424.83 364.255 427.131 369.741 431.187 373.797C435.242 377.853 440.729 380.153 446.464 380.203C452.2 380.253 457.726 378.048 461.851 374.064L469.333 366.582" stroke="#132742" stroke-width="5" stroke-linecap="round" stroke-linejoin="round"/>
</g>
<path d="M130.23 287H119.684V265.062H99.1172V287H88.5703V235.812H99.1172V256.555H119.684V235.812H130.23V287ZM156.316 287.703C150.738 287.703 146.191 285.992 142.676 282.57C139.184 279.148 137.438 274.59 137.438 268.895V267.91C137.438 264.09 138.176 260.68 139.652 257.68C141.129 254.656 143.215 252.336 145.91 250.719C148.629 249.078 151.723 248.258 155.191 248.258C160.395 248.258 164.484 249.898 167.461 253.18C170.461 256.461 171.961 261.113 171.961 267.137V271.285H147.738C148.066 273.77 149.051 275.762 150.691 277.262C152.355 278.762 154.453 279.512 156.984 279.512C160.898 279.512 163.957 278.094 166.16 275.258L171.152 280.848C169.629 283.004 167.566 284.691 164.965 285.91C162.363 287.105 159.48 287.703 156.316 287.703ZM155.156 256.484C153.141 256.484 151.5 257.164 150.234 258.523C148.992 259.883 148.195 261.828 147.844 264.359H161.977V263.551C161.93 261.301 161.32 259.566 160.148 258.348C158.977 257.105 157.312 256.484 155.156 256.484ZM187.113 248.961L187.43 253.355C190.148 249.957 193.793 248.258 198.363 248.258C202.395 248.258 205.395 249.441 207.363 251.809C209.332 254.176 210.34 257.715 210.387 262.426V287H200.227V262.672C200.227 260.516 199.758 258.957 198.82 257.996C197.883 257.012 196.324 256.52 194.145 256.52C191.285 256.52 189.141 257.738 187.711 260.176V287H177.551V248.961H187.113ZM228.879 248.961V289.074C228.879 293.27 227.766 296.527 225.539 298.848C223.312 301.191 220.102 302.363 215.906 302.363C214.148 302.363 212.473 302.164 210.879 301.766V293.715C212.098 293.926 213.164 294.031 214.078 294.031C217.148 294.031 218.684 292.402 218.684 289.145V248.961H228.879ZM217.875 239.117C217.875 237.594 218.379 236.34 219.387 235.355C220.418 234.371 221.812 233.879 223.57 233.879C225.328 233.879 226.711 234.371 227.719 235.355C228.75 236.34 229.266 237.594 229.266 239.117C229.266 240.664 228.738 241.93 227.684 242.914C226.652 243.898 225.281 244.391 223.57 244.391C221.859 244.391 220.477 243.898 219.422 242.914C218.391 241.93 217.875 240.664 217.875 239.117ZM259.605 283.133C257.098 286.18 253.629 287.703 249.199 287.703C245.121 287.703 242.004 286.531 239.848 284.188C237.715 281.844 236.625 278.41 236.578 273.887V248.961H246.738V273.535C246.738 277.496 248.543 279.477 252.152 279.477C255.598 279.477 257.965 278.281 259.254 275.891V248.961H269.449V287H259.887L259.605 283.133ZM288.328 278.527H310.723V287H277.781V235.812H288.328V278.527ZM326.859 287H316.664V248.961H326.859V287ZM316.066 239.117C316.066 237.594 316.57 236.34 317.578 235.355C318.609 234.371 320.004 233.879 321.762 233.879C323.496 233.879 324.879 234.371 325.91 235.355C326.941 236.34 327.457 237.594 327.457 239.117C327.457 240.664 326.93 241.93 325.875 242.914C324.844 243.898 323.473 244.391 321.762 244.391C320.051 244.391 318.668 243.898 317.613 242.914C316.582 241.93 316.066 240.664 316.066 239.117ZM344.613 248.961L344.93 253.355C347.648 249.957 351.293 248.258 355.863 248.258C359.895 248.258 362.895 249.441 364.863 251.809C366.832 254.176 367.84 257.715 367.887 262.426V287H357.727V262.672C357.727 260.516 357.258 258.957 356.32 257.996C355.383 257.012 353.824 256.52 351.645 256.52C348.785 256.52 346.641 257.738 345.211 260.176V287H335.051V248.961H344.613ZM389.438 271.742L385.781 275.398V287H375.621V233H385.781V262.918L387.75 260.387L397.488 248.961H409.688L395.941 264.816L410.883 287H399.211L389.438 271.742Z" fill="#132742"/>
<defs>
<filter id="filter0_d" x="0" y="0" width="225" height="237.756" filterUnits="userSpaceOnUse" color-interpolation-filters="sRGB">
<feFlood flood-opacity="0" result="BackgroundImageFix"/>
<feColorMatrix in="SourceAlpha" type="matrix" values="0 0 0 0 0 0 0 0 0 0 0 0 0 0 0 0 0 0 127 0"/>
<feOffset dx="2" dy="4"/>
<feGaussianBlur stdDeviation="3.5"/>
<feColorMatrix type="matrix" values="0 0 0 0 0 0 0 0 0 0 0 0 0 0 0 0 0 0 0.45 0"/>
<feBlend mode="normal" in2="BackgroundImageFix" result="effect1_dropShadow"/>
<feBlend mode="normal" in="SourceGraphic" in2="effect1_dropShadow" result="shape"/>
</filter>
<filter id="filter1_d" x="375" y="254" width="186.566" height="197.361" filterUnits="userSpaceOnUse" color-interpolation-filters="sRGB">
<feFlood flood-opacity="0" result="BackgroundImageFix"/>
<feColorMatrix in="SourceAlpha" type="matrix" values="0 0 0 0 0 0 0 0 0 0 0 0 0 0 0 0 0 0 127 0"/>
<feOffset dy="4"/>
<feGaussianBlur stdDeviation="2"/>
<feColorMatrix type="matrix" values="0 0 0 0 0 0 0 0 0 0 0 0 0 0 0 0 0 0 0.25 0"/>
<feBlend mode="normal" in2="BackgroundImageFix" result="effect1_dropShadow"/>
<feBlend mode="normal" in="SourceGraphic" in2="effect1_dropShadow" result="shape"/>
</filter>
</defs>
</svg>
