<svg width="559" height="450" viewBox="0 0 559 450" fill="none" xmlns="http://www.w3.org/2000/svg">
<g filter="url(#filter0_d)">
<g filter="url(#filter1_d)">
<path d="M33.6385 180.954L92.3488 166.868L75.1923 224.756L33.6385 180.954Z" fill="#132742"/>
<rect x="3" y="13.7695" width="199.697" height="183.154" rx="43.491" transform="rotate(-3.66624 3 13.7695)" fill="#132742"/>
<path d="M98.1606 103.944C100.381 106.912 103.213 109.368 106.466 111.145C109.719 112.922 113.316 113.979 117.013 114.244C120.71 114.509 124.42 113.975 127.893 112.68C131.366 111.384 134.52 109.357 137.14 106.736L152.649 91.2267C157.357 86.3516 159.963 79.8222 159.904 73.0449C159.845 66.2675 157.127 59.7844 152.334 54.992C147.542 50.1995 141.059 47.481 134.281 47.4221C127.504 47.3632 120.974 49.9686 116.099 54.6771L107.208 63.5172" stroke="white" stroke-width="9.88433" stroke-linecap="round" stroke-linejoin="round"/>
<path d="M118.839 93.6048C116.619 90.6367 113.787 88.1808 110.534 86.4037C107.281 84.6266 103.684 83.5698 99.9873 83.3051C96.2902 83.0403 92.5795 83.5737 89.1067 84.8691C85.6339 86.1646 82.4804 88.1918 79.8599 90.8131L64.3509 106.322C59.6424 111.197 57.0371 117.727 57.0959 124.504C57.1548 131.281 59.8733 137.764 64.6658 142.557C69.4583 147.349 75.9414 150.068 82.7187 150.127C89.4961 150.186 96.0254 147.58 100.9 142.872L109.741 134.032" stroke="white" stroke-width="9.88433" stroke-linecap="round" stroke-linejoin="round"/>
</g>
<g filter="url(#filter2_d)">
<path d="M402.929 404.292L452.614 392.371L438.095 441.361L402.929 404.292Z" fill="white"/>
<rect x="377" y="262.807" width="169" height="155" rx="22" transform="rotate(-3.66624 377 262.807)" fill="white"/>
<path d="M457.533 339.12C459.412 341.632 461.809 343.71 464.561 345.214C467.314 346.718 470.358 347.612 473.487 347.836C476.616 348.06 479.756 347.609 482.695 346.513C485.634 345.416 488.303 343.701 490.52 341.482L503.645 328.357C507.63 324.232 509.835 318.706 509.785 312.97C509.735 307.235 507.435 301.748 503.379 297.692C499.323 293.637 493.836 291.336 488.101 291.286C482.365 291.236 476.84 293.441 472.714 297.426L465.189 304.907" stroke="#132742" stroke-width="5" stroke-linecap="round" stroke-linejoin="round"/>
<path d="M475.033 330.37C473.154 327.858 470.757 325.78 468.004 324.276C465.251 322.772 462.207 321.877 459.079 321.653C455.95 321.429 452.809 321.881 449.87 322.977C446.932 324.073 444.263 325.789 442.045 328.007L428.92 341.132C424.935 345.258 422.731 350.784 422.78 356.519C422.83 362.255 425.131 367.741 429.187 371.797C433.242 375.853 438.729 378.153 444.464 378.203C450.2 378.253 455.726 376.048 459.851 372.064L467.333 364.582" stroke="#132742" stroke-width="5" stroke-linecap="round" stroke-linejoin="round"/>
</g>
<path d="M128.23 285H117.684V263.062H97.1172V285H86.5703V233.812H97.1172V254.555H117.684V233.812H128.23V285ZM154.316 285.703C148.738 285.703 144.191 283.992 140.676 280.57C137.184 277.148 135.438 272.59 135.438 266.895V265.91C135.438 262.09 136.176 258.68 137.652 255.68C139.129 252.656 141.215 250.336 143.91 248.719C146.629 247.078 149.723 246.258 153.191 246.258C158.395 246.258 162.484 247.898 165.461 251.18C168.461 254.461 169.961 259.113 169.961 265.137V269.285H145.738C146.066 271.77 147.051 273.762 148.691 275.262C150.355 276.762 152.453 277.512 154.984 277.512C158.898 277.512 161.957 276.094 164.16 273.258L169.152 278.848C167.629 281.004 165.566 282.691 162.965 283.91C160.363 285.105 157.48 285.703 154.316 285.703ZM153.156 254.484C151.141 254.484 149.5 255.164 148.234 256.523C146.992 257.883 146.195 259.828 145.844 262.359H159.977V261.551C159.93 259.301 159.32 257.566 158.148 256.348C156.977 255.105 155.312 254.484 153.156 254.484ZM185.113 246.961L185.43 251.355C188.148 247.957 191.793 246.258 196.363 246.258C200.395 246.258 203.395 247.441 205.363 249.809C207.332 252.176 208.34 255.715 208.387 260.426V285H198.227V260.672C198.227 258.516 197.758 256.957 196.82 255.996C195.883 255.012 194.324 254.52 192.145 254.52C189.285 254.52 187.141 255.738 185.711 258.176V285H175.551V246.961H185.113ZM226.879 246.961V287.074C226.879 291.27 225.766 294.527 223.539 296.848C221.312 299.191 218.102 300.363 213.906 300.363C212.148 300.363 210.473 300.164 208.879 299.766V291.715C210.098 291.926 211.164 292.031 212.078 292.031C215.148 292.031 216.684 290.402 216.684 287.145V246.961H226.879ZM215.875 237.117C215.875 235.594 216.379 234.34 217.387 233.355C218.418 232.371 219.812 231.879 221.57 231.879C223.328 231.879 224.711 232.371 225.719 233.355C226.75 234.34 227.266 235.594 227.266 237.117C227.266 238.664 226.738 239.93 225.684 240.914C224.652 241.898 223.281 242.391 221.57 242.391C219.859 242.391 218.477 241.898 217.422 240.914C216.391 239.93 215.875 238.664 215.875 237.117ZM257.605 281.133C255.098 284.18 251.629 285.703 247.199 285.703C243.121 285.703 240.004 284.531 237.848 282.188C235.715 279.844 234.625 276.41 234.578 271.887V246.961H244.738V271.535C244.738 275.496 246.543 277.477 250.152 277.477C253.598 277.477 255.965 276.281 257.254 273.891V246.961H267.449V285H257.887L257.605 281.133ZM286.328 276.527H308.723V285H275.781V233.812H286.328V276.527ZM324.859 285H314.664V246.961H324.859V285ZM314.066 237.117C314.066 235.594 314.57 234.34 315.578 233.355C316.609 232.371 318.004 231.879 319.762 231.879C321.496 231.879 322.879 232.371 323.91 233.355C324.941 234.34 325.457 235.594 325.457 237.117C325.457 238.664 324.93 239.93 323.875 240.914C322.844 241.898 321.473 242.391 319.762 242.391C318.051 242.391 316.668 241.898 315.613 240.914C314.582 239.93 314.066 238.664 314.066 237.117ZM342.613 246.961L342.93 251.355C345.648 247.957 349.293 246.258 353.863 246.258C357.895 246.258 360.895 247.441 362.863 249.809C364.832 252.176 365.84 255.715 365.887 260.426V285H355.727V260.672C355.727 258.516 355.258 256.957 354.32 255.996C353.383 255.012 351.824 254.52 349.645 254.52C346.785 254.52 344.641 255.738 343.211 258.176V285H333.051V246.961H342.613ZM387.438 269.742L383.781 273.398V285H373.621V231H383.781V260.918L385.75 258.387L395.488 246.961H407.688L393.941 262.816L408.883 285H397.211L387.438 269.742Z" fill="#132742"/>
</g>
<defs>
<filter id="filter0_d" x="1.69043" y="3.69055" width="556.514" height="445.67" filterUnits="userSpaceOnUse" color-interpolation-filters="sRGB">
<feFlood flood-opacity="0" result="BackgroundImageFix"/>
<feColorMatrix in="SourceAlpha" type="matrix" values="0 0 0 0 0 0 0 0 0 0 0 0 0 0 0 0 0 0 127 0"/>
<feOffset dy="4"/>
<feGaussianBlur stdDeviation="2"/>
<feColorMatrix type="matrix" values="0 0 0 0 0 0 0 0 0 0 0 0 0 0 0 0 0 0 0.25 0"/>
<feBlend mode="normal" in2="BackgroundImageFix" result="effect1_dropShadow"/>
<feBlend mode="normal" in="SourceGraphic" in2="effect1_dropShadow" result="shape"/>
</filter>
<filter id="filter1_d" x="0.69043" y="0.690552" width="219.619" height="235.065" filterUnits="userSpaceOnUse" color-interpolation-filters="sRGB">
<feFlood flood-opacity="0" result="BackgroundImageFix"/>
<feColorMatrix in="SourceAlpha" type="matrix" values="0 0 0 0 0 0 0 0 0 0 0 0 0 0 0 0 0 0 127 0"/>
<feOffset dx="2" dy="4"/>
<feGaussianBlur stdDeviation="3.5"/>
<feColorMatrix type="matrix" values="0 0 0 0 0 0 0 0 0 0 0 0 0 0 0 0 0 0 0.45 0"/>
<feBlend mode="normal" in2="BackgroundImageFix" result="effect1_dropShadow"/>
<feBlend mode="normal" in="SourceGraphic" in2="effect1_dropShadow" result="shape"/>
</filter>
<filter id="filter2_d" x="374.361" y="253.361" width="183.844" height="196" filterUnits="userSpaceOnUse" color-interpolation-filters="sRGB">
<feFlood flood-opacity="0" result="BackgroundImageFix"/>
<feColorMatrix in="SourceAlpha" type="matrix" values="0 0 0 0 0 0 0 0 0 0 0 0 0 0 0 0 0 0 127 0"/>
<feOffset dy="4"/>
<feGaussianBlur stdDeviation="2"/>
<feColorMatrix type="matrix" values="0 0 0 0 0 0 0 0 0 0 0 0 0 0 0 0 0 0 0.25 0"/>
<feBlend mode="normal" in2="BackgroundImageFix" result="effect1_dropShadow"/>
<feBlend mode="normal" in="SourceGraphic" in2="effect1_dropShadow" result="shape"/>
</filter>
</defs>
</svg>
